<svg xmlns="http://www.w3.org/2000/svg" xmlns:xlink="http://www.w3.org/1999/xlink" width="500" zoomAndPan="magnify" viewBox="0 0 375 374.999991" height="500" preserveAspectRatio="xMidYMid meet" version="1.0"><path fill="#ffffff" d="M 87.5 231.25 C 84.058594 231.25 81.25 234.058594 81.25 237.5 L 81.25 268.75 C 81.25 272.191406 84.058594 275 87.5 275 C 90.941406 275 93.75 272.191406 93.75 268.75 L 93.75 237.5 C 93.75 234.058594 90.941406 231.25 87.5 231.25 " fill-opacity="1" fill-rule="nonzero"/><path fill="#ffffff" d="M 362.5 293.75 L 137.5 293.75 L 137.5 250 C 137.5 222.4375 115.0625 200 87.5 200 C 59.9375 200 37.5 222.4375 37.5 250 L 37.5 293.75 L 12.5 293.75 L 12.5 125 L 50 125 C 53.441406 125 56.25 122.191406 56.25 118.75 L 56.25 81.25 L 300 81.25 L 300 168.75 C 300 168.847656 300.046875 168.921875 300.046875 168.992188 C 300.074219 169.726562 300.195312 170.433594 300.488281 171.117188 C 300.488281 171.140625 300.488281 171.167969 300.511719 171.191406 C 300.511719 171.214844 300.511719 171.214844 300.511719 171.214844 L 319.261719 214.964844 C 320.238281 217.261719 322.507812 218.75 325 218.75 C 327.488281 218.75 329.761719 217.261719 330.738281 214.964844 L 349.488281 171.214844 C 349.488281 171.214844 349.488281 171.214844 349.488281 171.191406 C 349.511719 171.167969 349.511719 171.140625 349.511719 171.117188 C 349.804688 170.433594 349.925781 169.726562 349.949219 168.992188 C 349.949219 168.921875 350 168.847656 350 168.75 L 350 81.25 L 362.5 81.25 Z M 125 325 C 125 345.679688 108.179688 362.5 87.5 362.5 C 66.820312 362.5 50 345.679688 50 325 L 50 250 C 50 229.320312 66.820312 212.5 87.5 212.5 C 108.179688 212.5 125 229.320312 125 250 Z M 43.75 90.085938 L 43.75 112.5 L 21.335938 112.5 Z M 34.914062 81.25 L 12.5 103.660156 L 12.5 81.25 Z M 312.5 12.5 L 337.5 12.5 L 337.5 25 L 312.5 25 Z M 334.277344 175 L 325 196.628906 L 315.722656 175 Z M 337.5 162.5 L 312.5 162.5 L 312.5 37.5 L 337.5 37.5 Z M 368.75 68.75 L 350 68.75 L 350 6.25 C 350 2.808594 347.191406 0 343.75 0 L 306.25 0 C 302.808594 0 300 2.808594 300 6.25 L 300 68.75 L 6.25 68.75 C 2.808594 68.75 0 71.558594 0 75 L 0 300 C 0 303.441406 2.808594 306.25 6.25 306.25 L 37.5 306.25 L 37.5 325 C 37.5 352.5625 59.9375 375 87.5 375 C 115.0625 375 137.5 352.5625 137.5 325 L 137.5 306.25 L 368.75 306.25 C 372.191406 306.25 375 303.441406 375 300 L 375 75 C 375 71.558594 372.191406 68.75 368.75 68.75 " fill-opacity="1" fill-rule="nonzero"/><path fill="#ffffff" d="M 343.75 268.75 L 331.25 268.75 C 327.808594 268.75 325 271.558594 325 275 C 325 278.441406 327.808594 281.25 331.25 281.25 L 343.75 281.25 C 347.191406 281.25 350 278.441406 350 275 C 350 271.558594 347.191406 268.75 343.75 268.75 " fill-opacity="1" fill-rule="nonzero"/><path fill="#ffffff" d="M 306.25 268.75 L 293.75 268.75 C 290.308594 268.75 287.5 271.558594 287.5 275 C 287.5 278.441406 290.308594 281.25 293.75 281.25 L 306.25 281.25 C 309.691406 281.25 312.5 278.441406 312.5 275 C 312.5 271.558594 309.691406 268.75 306.25 268.75 " fill-opacity="1" fill-rule="nonzero"/><path fill="#ffffff" d="M 254.832031 114.792969 C 252.636719 112.132812 248.707031 111.71875 246.042969 113.914062 L 181.445312 166.773438 L 122.925781 114.109375 C 120.777344 112.15625 117.578125 111.960938 115.183594 113.597656 L 33.9375 169.847656 C 31.101562 171.824219 30.394531 175.707031 32.347656 178.5625 C 33.570312 180.296875 35.523438 181.25 37.5 181.25 C 38.746094 181.25 39.964844 180.882812 41.066406 180.152344 L 118.238281 126.707031 L 177.074219 179.636719 C 179.371094 181.714844 182.8125 181.785156 185.203125 179.832031 L 253.953125 123.582031 C 256.617188 121.410156 257.03125 117.457031 254.832031 114.792969 " fill-opacity="1" fill-rule="nonzero"/><path fill="#ffffff" d="M 211.277344 243.75 L 231.25 211.792969 L 251.21875 243.75 Z M 236.546875 196.679688 C 234.253906 193.042969 228.246094 193.042969 225.953125 196.679688 L 194.703125 246.679688 C 193.503906 248.609375 193.433594 251.050781 194.53125 253.027344 C 195.628906 255.003906 197.730469 256.25 200 256.25 L 262.5 256.25 C 264.769531 256.25 266.871094 255.003906 267.96875 253.027344 C 269.066406 251.050781 268.992188 248.609375 267.796875 246.679688 L 236.546875 196.679688 " fill-opacity="1" fill-rule="nonzero"/></svg>