<svg xmlns="http://www.w3.org/2000/svg" xmlns:xlink="http://www.w3.org/1999/xlink" width="500" zoomAndPan="magnify" viewBox="0 0 375 374.999991" height="500" preserveAspectRatio="xMidYMid meet" version="1.0"><defs><clipPath id="f9b1bda813"><path d="M 2.578125 0 L 372.328125 0 L 372.328125 375 L 2.578125 375 Z M 2.578125 0 " clip-rule="nonzero"/></clipPath></defs><g clip-path="url(#f9b1bda813)"><path fill="#ffffff" d="M 338.734375 37.734375 L 310.503906 37.734375 L 313.007812 32.097656 C 314.023438 29.8125 313.527344 27.136719 311.757812 25.367188 L 300.136719 13.746094 C 298.367188 11.976562 295.691406 11.480469 293.402344 12.496094 L 286.355469 15.625 C 282.851562 13.730469 279.175781 12.203125 275.363281 11.066406 L 272.59375 3.875 C 271.695312 1.539062 269.453125 0 266.949219 0 L 250.515625 0 C 248.015625 0 245.769531 1.539062 244.871094 3.875 L 242.105469 11.066406 C 238.292969 12.203125 234.617188 13.730469 231.113281 15.625 L 224.066406 12.492188 C 221.777344 11.476562 219.101562 11.976562 217.332031 13.746094 L 205.710938 25.367188 C 203.941406 27.136719 203.445312 29.8125 204.460938 32.097656 L 206.964844 37.734375 L 188.167969 37.734375 L 188.167969 25.328125 C 188.167969 14.578125 179.425781 5.835938 168.675781 5.835938 L 163.300781 5.835938 C 152.550781 5.835938 143.808594 14.578125 143.808594 25.328125 L 143.808594 37.734375 L 36.191406 37.734375 C 17.699219 37.734375 2.65625 52.777344 2.65625 71.269531 L 2.65625 260.347656 C 2.65625 278.835938 17.699219 293.878906 36.191406 293.878906 L 125.234375 293.878906 L 125.234375 325.449219 L 89.449219 325.449219 C 73.1875 325.449219 59.960938 336.5625 59.960938 350.226562 L 59.960938 368.953125 C 59.960938 372.292969 62.667969 375 66.007812 375 L 308.917969 375 C 312.257812 375 314.964844 372.292969 314.964844 368.953125 L 314.964844 350.222656 C 314.964844 336.5625 301.738281 325.449219 285.480469 325.449219 L 249.691406 325.449219 L 249.691406 293.878906 L 338.734375 293.878906 C 357.226562 293.878906 372.269531 278.835938 372.269531 260.347656 L 372.269531 71.269531 C 372.269531 52.777344 357.222656 37.734375 338.734375 37.734375 Z M 213.957031 56.078125 C 215.085938 51.339844 216.953125 46.832031 219.515625 42.671875 C 220.5625 40.976562 220.703125 38.871094 219.894531 37.046875 L 217.203125 30.984375 L 222.949219 25.234375 L 229.015625 27.929688 C 230.835938 28.738281 232.941406 28.597656 234.640625 27.550781 C 238.796875 24.992188 243.308594 23.121094 248.042969 21.992188 C 249.984375 21.53125 251.570312 20.144531 252.289062 18.28125 L 254.667969 12.097656 L 262.796875 12.097656 L 265.179688 18.285156 C 265.898438 20.144531 267.484375 21.53125 269.425781 21.996094 C 274.160156 23.121094 278.667969 24.992188 282.828125 27.550781 C 284.527344 28.597656 286.628906 28.738281 288.453125 27.929688 L 294.519531 25.234375 L 300.265625 30.984375 L 297.574219 37.046875 C 296.765625 38.871094 296.90625 40.976562 297.953125 42.675781 C 300.511719 46.832031 302.382812 51.34375 303.507812 56.078125 C 303.972656 58.019531 305.359375 59.605469 307.222656 60.320312 L 313.40625 62.703125 L 313.40625 70.832031 L 307.222656 73.210938 C 305.359375 73.929688 303.972656 75.515625 303.511719 77.457031 C 302.382812 82.195312 300.511719 86.707031 297.953125 90.863281 C 296.90625 92.5625 296.765625 94.667969 297.574219 96.488281 L 300.269531 102.550781 L 294.519531 108.300781 L 288.453125 105.605469 C 286.632812 104.796875 284.527344 104.9375 282.828125 105.984375 C 278.667969 108.542969 274.160156 110.414062 269.425781 111.542969 C 267.484375 112.003906 265.898438 113.390625 265.179688 115.253906 L 262.800781 121.4375 L 254.671875 121.4375 L 252.292969 115.253906 C 251.574219 113.394531 249.988281 112.003906 248.046875 111.542969 C 243.308594 110.417969 238.796875 108.546875 234.640625 105.984375 C 232.941406 104.9375 230.835938 104.800781 229.011719 105.605469 L 222.953125 108.300781 L 217.203125 102.550781 L 219.898438 96.488281 C 220.707031 94.664062 220.566406 92.558594 219.519531 90.859375 C 216.957031 86.703125 215.089844 82.191406 213.960938 77.457031 C 213.5 75.519531 212.113281 73.929688 210.25 73.214844 L 204.066406 70.832031 L 204.066406 62.703125 L 210.25 60.324219 C 212.109375 59.605469 213.496094 58.019531 213.957031 56.078125 Z M 144.617188 164.945312 L 160.75 192.886719 C 161.832031 194.757812 163.828125 195.910156 165.988281 195.910156 C 168.148438 195.910156 170.144531 194.757812 171.226562 192.886719 L 187.359375 164.945312 C 187.890625 164.023438 188.167969 162.980469 188.167969 161.917969 L 188.167969 72.816406 L 191.964844 72.816406 L 191.964844 74.984375 C 191.964844 77.488281 193.507812 79.730469 195.839844 80.628906 L 203.03125 83.398438 C 204.167969 87.207031 205.695312 90.886719 207.589844 94.390625 L 204.460938 101.4375 C 203.445312 103.722656 203.941406 106.398438 205.710938 108.167969 L 217.332031 119.789062 C 219.101562 121.558594 221.777344 122.054688 224.0625 121.042969 L 231.109375 117.910156 C 234.613281 119.808594 238.292969 121.332031 242.105469 122.46875 L 244.871094 129.660156 C 245.769531 131.992188 248.011719 133.535156 250.515625 133.535156 L 266.949219 133.535156 C 269.453125 133.535156 271.695312 131.992188 272.59375 129.660156 L 275.363281 122.46875 C 279.171875 121.332031 282.851562 119.804688 286.355469 117.910156 L 293.402344 121.042969 C 295.6875 122.058594 298.367188 121.558594 300.132812 119.789062 L 311.753906 108.167969 C 313.523438 106.398438 314.023438 103.722656 313.007812 101.4375 L 309.878906 94.394531 C 311.773438 90.890625 313.300781 87.210938 314.4375 83.398438 L 321.625 80.628906 C 323.960938 79.730469 325.5 77.488281 325.5 74.984375 L 325.5 72.816406 L 337.1875 72.816406 L 337.1875 235.488281 L 37.738281 235.488281 L 37.738281 72.816406 L 143.808594 72.816406 L 143.808594 161.917969 C 143.808594 162.980469 144.085938 164.023438 144.617188 164.945312 Z M 160.332031 167.96875 L 171.644531 167.96875 L 165.988281 177.765625 Z M 203.128906 49.832031 C 203.097656 49.933594 203.0625 50.035156 203.03125 50.136719 L 195.84375 52.90625 C 193.507812 53.804688 191.964844 56.046875 191.964844 58.550781 L 191.964844 60.71875 L 188.167969 60.71875 L 188.167969 49.832031 Z M 163.300781 17.933594 L 168.675781 17.933594 C 172.753906 17.933594 176.074219 21.25 176.074219 25.328125 L 176.074219 155.871094 L 155.902344 155.871094 L 155.902344 66.769531 C 155.902344 66.769531 155.902344 66.769531 155.902344 66.765625 L 155.902344 25.328125 C 155.902344 21.25 159.222656 17.933594 163.300781 17.933594 Z M 302.867188 350.222656 L 302.867188 362.902344 L 72.058594 362.902344 L 72.058594 350.222656 C 72.058594 343.351562 80.019531 337.546875 89.445312 337.546875 L 285.476562 337.546875 C 294.902344 337.546875 302.867188 343.351562 302.867188 350.222656 Z M 237.59375 325.449219 L 137.328125 325.449219 L 137.328125 293.878906 L 237.59375 293.878906 Z M 360.171875 260.347656 C 360.171875 272.167969 350.554688 281.785156 338.734375 281.785156 L 36.191406 281.785156 C 24.371094 281.785156 14.753906 272.167969 14.753906 260.347656 L 14.753906 71.269531 C 14.753906 59.449219 24.371094 49.832031 36.191406 49.832031 L 143.808594 49.832031 L 143.808594 60.71875 L 35.5 60.71875 C 30.0625 60.71875 25.640625 65.144531 25.640625 70.578125 L 25.640625 241.535156 C 25.640625 244.875 28.347656 247.582031 31.6875 247.582031 L 343.234375 247.582031 C 346.574219 247.582031 349.285156 244.875 349.285156 241.535156 L 349.285156 70.578125 C 349.285156 65.144531 344.859375 60.71875 339.421875 60.71875 L 325.5 60.71875 L 325.5 58.550781 C 325.5 56.050781 323.960938 53.804688 321.625 52.90625 L 314.433594 50.140625 C 314.402344 50.035156 314.367188 49.933594 314.335938 49.832031 L 338.734375 49.832031 C 350.554688 49.832031 360.171875 59.449219 360.171875 71.269531 Z M 258.734375 101.476562 C 277.875 101.476562 293.445312 85.90625 293.445312 66.769531 C 293.445312 47.628906 277.875 32.058594 258.734375 32.058594 C 239.59375 32.058594 224.023438 47.628906 224.023438 66.769531 C 224.023438 85.90625 239.59375 101.476562 258.734375 101.476562 Z M 258.734375 44.152344 C 271.203125 44.152344 281.347656 54.296875 281.347656 66.765625 C 281.347656 79.234375 271.203125 89.378906 258.734375 89.378906 C 246.265625 89.378906 236.121094 79.234375 236.121094 66.765625 C 236.121094 54.296875 246.265625 44.152344 258.734375 44.152344 Z M 248.792969 214.183594 L 264.367188 156.054688 C 265.234375 152.828125 268.554688 150.914062 271.777344 151.777344 C 275.003906 152.644531 276.917969 155.960938 276.054688 159.1875 L 260.476562 217.316406 C 259.753906 220.019531 257.308594 221.800781 254.636719 221.800781 C 254.121094 221.800781 253.59375 221.734375 253.070312 221.59375 C 249.84375 220.726562 247.929688 217.410156 248.792969 214.183594 Z M 207.960938 186.6875 C 207.960938 184.902344 208.746094 183.210938 210.113281 182.0625 L 235.492188 160.675781 C 238.042969 158.519531 241.859375 158.847656 244.015625 161.402344 C 246.167969 163.957031 245.839844 167.773438 243.285156 169.921875 L 223.394531 186.6875 L 243.285156 203.449219 C 245.839844 205.601562 246.167969 209.414062 244.015625 211.96875 C 242.816406 213.390625 241.109375 214.121094 239.386719 214.121094 C 238.007812 214.121094 236.625 213.652344 235.492188 212.695312 L 210.113281 191.308594 C 208.746094 190.160156 207.960938 188.46875 207.960938 186.6875 Z M 281.558594 203.449219 L 301.449219 186.6875 L 281.558594 169.921875 C 279.003906 167.769531 278.679688 163.957031 280.832031 161.402344 C 282.984375 158.847656 286.800781 158.519531 289.355469 160.675781 L 314.734375 182.0625 C 316.097656 183.210938 316.886719 184.902344 316.886719 186.6875 C 316.886719 188.46875 316.097656 190.160156 314.734375 191.308594 L 289.355469 212.695312 C 288.21875 213.652344 286.835938 214.121094 285.460938 214.121094 C 283.738281 214.121094 282.027344 213.390625 280.832031 211.96875 C 278.679688 209.414062 279.003906 205.597656 281.558594 203.449219 Z M 58.269531 208.40625 L 184.191406 208.40625 C 187.53125 208.40625 190.242188 211.113281 190.242188 214.453125 C 190.242188 217.792969 187.53125 220.5 184.191406 220.5 L 58.269531 220.5 C 54.925781 220.5 52.21875 217.792969 52.21875 214.453125 C 52.21875 211.113281 54.925781 208.40625 58.269531 208.40625 Z M 51.789062 165.671875 C 51.789062 162.332031 54.496094 159.621094 57.835938 159.621094 L 123.277344 159.621094 C 126.617188 159.621094 129.324219 162.332031 129.324219 165.671875 C 129.324219 169.011719 126.617188 171.71875 123.277344 171.71875 L 57.835938 171.71875 C 54.496094 171.71875 51.789062 169.011719 51.789062 165.671875 Z M 52.003906 190.0625 C 52.003906 186.722656 54.710938 184.015625 58.050781 184.015625 L 123.492188 184.015625 C 126.832031 184.015625 129.539062 186.722656 129.539062 190.0625 C 129.539062 193.402344 126.832031 196.109375 123.492188 196.109375 L 58.050781 196.109375 C 54.710938 196.109375 52.003906 193.402344 52.003906 190.0625 Z M 52.21875 92.496094 C 52.21875 89.15625 54.925781 86.449219 58.269531 86.449219 L 123.707031 86.449219 C 127.046875 86.449219 129.753906 89.15625 129.753906 92.496094 C 129.753906 95.835938 127.046875 98.546875 123.707031 98.546875 L 58.269531 98.546875 C 54.925781 98.546875 52.21875 95.835938 52.21875 92.496094 Z M 52.003906 116.890625 C 52.003906 113.546875 54.710938 110.839844 58.050781 110.839844 L 123.492188 110.839844 C 126.832031 110.839844 129.539062 113.546875 129.539062 116.890625 C 129.539062 120.230469 126.832031 122.9375 123.492188 122.9375 L 58.050781 122.9375 C 54.710938 122.9375 52.003906 120.230469 52.003906 116.890625 Z M 51.789062 141.28125 C 51.789062 137.941406 54.496094 135.230469 57.835938 135.230469 L 123.277344 135.230469 C 126.617188 135.230469 129.324219 137.941406 129.324219 141.28125 C 129.324219 144.621094 126.617188 147.328125 123.277344 147.328125 L 57.835938 147.328125 C 54.496094 147.328125 51.789062 144.621094 51.789062 141.28125 Z M 51.789062 141.28125 " fill-opacity="1" fill-rule="nonzero"/></g></svg>