<svg xmlns="http://www.w3.org/2000/svg" xmlns:xlink="http://www.w3.org/1999/xlink" width="500" zoomAndPan="magnify" viewBox="0 0 375 374.999991" height="500" preserveAspectRatio="xMidYMid meet" version="1.0"><defs><clipPath id="6726c67e72"><path d="M 0 9 L 375 9 L 375 366.984375 L 0 366.984375 Z M 0 9 " clip-rule="nonzero"/></clipPath></defs><g clip-path="url(#6726c67e72)"><path fill="#ffffff" d="M 4.601562 364.6875 C 2.347656 362.433594 2.261719 360.578125 4.296875 357.992188 C 5.78125 356.105469 6.171875 356.023438 14.664062 355.816406 L 23.484375 355.605469 L 23.863281 328.808594 C 24.203125 304.644531 24.375 301.804688 25.597656 299.9375 C 26.347656 298.796875 27.703125 297.589844 28.613281 297.253906 C 29.527344 296.917969 40.957031 296.910156 54.019531 297.222656 C 67.082031 297.550781 79.683594 297.839844 82.019531 297.867188 C 85.023438 297.90625 86.792969 298.34375 88.050781 299.359375 L 89.832031 300.800781 L 90.207031 328.199219 L 90.585938 355.59375 L 102.925781 355.804688 C 111.386719 355.945312 115.59375 355.738281 116.308594 355.144531 C 117.171875 354.429688 117.351562 347.007812 117.351562 311.566406 C 117.351562 264.398438 117.1875 265.980469 122.085938 265.148438 C 126.429688 264.40625 171.125 265.902344 172.863281 266.847656 C 173.75 267.328125 174.765625 268.324219 175.125 269.0625 C 175.484375 269.796875 175.949219 289.570312 176.15625 313 L 176.535156 355.597656 L 187.363281 355.808594 C 194.707031 355.949219 198.527344 355.738281 199.238281 355.148438 C 200.113281 354.421875 200.285156 343.859375 200.285156 289.878906 L 200.285156 225.476562 L 202.191406 223.566406 L 204.097656 221.660156 L 229.898438 222.121094 C 244.085938 222.371094 257.785156 222.757812 260.335938 222.980469 C 268.578125 223.699219 267.707031 216.175781 268.136719 290.507812 L 268.515625 355.597656 L 289.625 355.597656 L 290 256.453125 C 290.351562 164.695312 290.476562 157.136719 291.671875 154.953125 C 292.378906 153.65625 293.511719 152.382812 294.183594 152.125 C 295.773438 151.515625 312.050781 151.53125 332.285156 152.160156 L 348.421875 152.664062 L 352.578125 156.820312 L 352.578125 255.9375 C 352.578125 345.628906 352.691406 355.101562 353.769531 355.515625 C 354.425781 355.765625 358.644531 355.972656 363.140625 355.972656 C 371.074219 355.972656 371.363281 356.035156 372.878906 357.960938 C 374.933594 360.570312 374.851562 362.417969 372.589844 364.679688 L 370.742188 366.527344 L 6.453125 366.527344 Z M 78.523438 332.234375 L 78.523438 308.863281 L 57.886719 308.25 C 46.535156 307.914062 36.78125 307.820312 36.210938 308.039062 C 35.359375 308.367188 35.171875 312.640625 35.171875 331.707031 C 35.171875 344.507812 35.402344 355.210938 35.6875 355.492188 C 35.96875 355.773438 45.722656 355.917969 57.359375 355.808594 L 78.523438 355.609375 Z M 164.667969 316.296875 L 164.863281 276.984375 L 150.34375 276.457031 C 142.355469 276.167969 134.125 276.046875 132.054688 276.1875 L 128.285156 276.445312 L 128.085938 315.601562 C 127.933594 346.421875 128.085938 354.886719 128.839844 355.367188 C 129.363281 355.703125 137.59375 355.894531 147.132812 355.792969 L 164.472656 355.605469 Z M 256.644531 295.082031 C 256.8125 242.175781 256.695312 234.5 255.71875 234.125 C 255.105469 233.890625 244.839844 233.644531 232.910156 233.582031 L 211.214844 233.46875 L 211.023438 293.699219 C 210.878906 337.957031 211.054688 354.207031 211.6875 354.96875 C 212.390625 355.8125 216.613281 355.96875 234.5 355.804688 L 256.449219 355.605469 Z M 341.117188 355.078125 C 342.464844 353.730469 342.429688 164.996094 341.082031 163.90625 C 340.523438 163.457031 332.285156 163.035156 320.914062 162.871094 L 301.6875 162.597656 L 301.496094 258.347656 C 301.390625 311.011719 301.464844 354.523438 301.660156 355.039062 C 302.164062 356.367188 339.792969 356.402344 341.121094 355.078125 Z M 2.339844 256.875 C 0.0390625 254.574219 -0.00390625 252.582031 2.1875 250.113281 C 3.625 248.496094 6.019531 247.726562 17.832031 245.085938 C 54.878906 236.804688 90.65625 224.367188 124.070312 208.148438 C 167.050781 187.285156 201.917969 164.59375 235.71875 135.488281 C 257.613281 116.628906 290.128906 82.15625 317.027344 49.277344 C 322.558594 42.511719 329.792969 33.863281 333.105469 30.050781 C 340.027344 22.082031 339.953125 21.933594 329.949219 23.832031 C 321.902344 25.359375 308.832031 25.367188 303.714844 23.859375 C 299.199219 22.519531 297.039062 19.648438 298.21875 16.546875 C 299.433594 13.351562 300.9375 12.683594 305.28125 13.40625 C 313.1875 14.722656 324.40625 14.035156 335.828125 11.539062 C 348.457031 8.78125 353.445312 8.570312 356.871094 10.660156 C 359.90625 12.511719 360.011719 13.152344 360.359375 32.179688 C 360.566406 43.601562 360.96875 48.570312 362.011719 52.660156 C 363.289062 57.65625 363.300781 58.199219 362.175781 59.917969 C 360.453125 62.550781 357.324219 63.175781 354.894531 61.371094 C 351.761719 59.046875 350.207031 52.601562 349.175781 37.648438 C 348.894531 33.605469 348.367188 30.296875 348 30.296875 C 347.289062 30.296875 336.113281 43.257812 319.277344 63.613281 C 283.820312 106.472656 250.214844 139.703125 217.246094 164.492188 C 166.921875 202.339844 107.734375 231.792969 48.367188 248.527344 C 33.390625 252.75 29.773438 253.667969 15.65625 256.820312 C 5.097656 259.179688 4.636719 259.183594 2.339844 256.886719 Z M 2.339844 256.875 " fill-opacity="1" fill-rule="nonzero"/></g></svg>