<svg xmlns="http://www.w3.org/2000/svg" xmlns:xlink="http://www.w3.org/1999/xlink" width="700" zoomAndPan="magnify" viewBox="0 0 525 149.999998" height="200" preserveAspectRatio="xMidYMid meet" version="1.0"><defs><g/><clipPath id="b383b2dce0"><path d="M 0.910156 8 L 75 8 L 75 118 L 0.910156 118 Z M 0.910156 8 " clip-rule="nonzero"/></clipPath><clipPath id="db0ed9265e"><path d="M 74 42 L 148.660156 42 L 148.660156 147.75 L 74 147.75 Z M 74 42 " clip-rule="nonzero"/></clipPath><clipPath id="b133a3a345"><path d="M 0.910156 73 L 119 73 L 119 147.75 L 0.910156 147.75 Z M 0.910156 73 " clip-rule="nonzero"/></clipPath></defs><g clip-path="url(#b383b2dce0)"><path fill="#06bfce" d="M 0.910156 117.261719 L 74.8125 73.894531 L 42.757812 19.277344 C 31.5625 0.195312 1.9375 7.035156 0.941406 29.136719 C 0.921875 29.597656 0.910156 30.066406 0.910156 30.535156 L 0.910156 117.261719 " fill-opacity="1" fill-rule="nonzero"/></g><g clip-path="url(#db0ed9265e)"><path fill="#0071af" d="M 118.175781 147.796875 C 135.039062 147.796875 148.710938 134.128906 148.710938 117.261719 L 148.707031 59.476562 C 148.707031 46.667969 134.792969 38.699219 123.742188 45.183594 L 74.8125 73.898438 L 118.175781 147.796875 " fill-opacity="1" fill-rule="nonzero"/></g><g clip-path="url(#b133a3a345)"><path fill="#3fa9f5" d="M 31.445312 147.796875 L 118.175781 147.796875 L 74.8125 73.898438 L 0.910156 117.261719 C 0.910156 117.988281 0.9375 118.707031 0.988281 119.417969 C 2.09375 135.273438 15.308594 147.796875 31.445312 147.796875 " fill-opacity="1" fill-rule="nonzero"/></g><path fill="#0071af" d="M 118.175781 19.75 C 118.175781 30.65625 109.335938 39.5 98.425781 39.5 C 87.519531 39.5 78.675781 30.65625 78.675781 19.75 C 78.679688 8.84375 87.523438 0 98.425781 0 C 109.335938 0 118.175781 8.839844 118.175781 19.75 Z M 118.175781 19.75 " fill-opacity="1" fill-rule="nonzero"/><g fill="#0071af" fill-opacity="1"><g transform="translate(159.89207, 74.757839)"><g><path d="M 18.21875 1.21875 C 15.707031 1.21875 13.4375 0.863281 11.40625 0.15625 C 9.382812 -0.550781 7.664062 -1.421875 6.25 -2.453125 C 4.832031 -3.484375 3.738281 -4.609375 2.96875 -5.828125 C 2.207031 -7.046875 1.828125 -8.140625 1.828125 -9.109375 C 1.828125 -10.316406 2.238281 -11.328125 3.0625 -12.140625 C 3.894531 -12.953125 5 -13.359375 6.375 -13.359375 C 7.507812 -13.359375 8.429688 -13.039062 9.140625 -12.40625 C 9.847656 -11.78125 10.585938 -11.082031 11.359375 -10.3125 C 12.128906 -9.550781 13.066406 -8.851562 14.171875 -8.21875 C 15.285156 -7.59375 16.835938 -7.28125 18.828125 -7.28125 C 21.253906 -7.28125 23.070312 -7.785156 24.28125 -8.796875 C 25.5 -9.816406 26.109375 -10.929688 26.109375 -12.140625 C 26.109375 -13.359375 25.539062 -14.320312 24.40625 -15.03125 C 23.269531 -15.738281 21.84375 -16.375 20.125 -16.9375 C 18.40625 -17.507812 16.550781 -18.085938 14.5625 -18.671875 C 12.582031 -19.253906 10.734375 -20.03125 9.015625 -21 C 7.296875 -21.976562 5.867188 -23.222656 4.734375 -24.734375 C 3.597656 -26.253906 3.03125 -28.226562 3.03125 -30.65625 C 3.03125 -32.476562 3.382812 -34.175781 4.09375 -35.75 C 4.800781 -37.332031 5.851562 -38.722656 7.25 -39.921875 C 8.644531 -41.117188 10.351562 -42.050781 12.375 -42.71875 C 14.40625 -43.382812 16.757812 -43.71875 19.4375 -43.71875 C 21.863281 -43.71875 24.046875 -43.382812 25.984375 -42.71875 C 27.929688 -42.050781 29.59375 -41.207031 30.96875 -40.1875 C 32.34375 -39.175781 33.394531 -38.082031 34.125 -36.90625 C 34.851562 -35.738281 35.21875 -34.671875 35.21875 -33.703125 C 35.21875 -32.484375 34.800781 -31.46875 33.96875 -30.65625 C 33.144531 -29.851562 32.039062 -29.453125 30.65625 -29.453125 C 29.894531 -29.453125 29.238281 -29.59375 28.6875 -29.875 C 28.144531 -30.15625 27.640625 -30.507812 27.171875 -30.9375 C 26.703125 -31.363281 26.234375 -31.828125 25.765625 -32.328125 C 25.304688 -32.835938 24.757812 -33.300781 24.125 -33.71875 C 23.5 -34.144531 22.757812 -34.5 21.90625 -34.78125 C 21.0625 -35.070312 20.035156 -35.21875 18.828125 -35.21875 C 16.835938 -35.21875 15.375 -34.820312 14.4375 -34.03125 C 13.507812 -33.238281 13.046875 -32.316406 13.046875 -31.265625 C 13.046875 -30.054688 13.613281 -29.097656 14.75 -28.390625 C 15.882812 -27.679688 17.3125 -27.039062 19.03125 -26.46875 C 20.75 -25.90625 22.597656 -25.328125 24.578125 -24.734375 C 26.566406 -24.148438 28.421875 -23.375 30.140625 -22.40625 C 31.867188 -21.4375 33.296875 -20.191406 34.421875 -18.671875 C 35.554688 -17.148438 36.125 -15.175781 36.125 -12.75 C 36.125 -10.84375 35.726562 -9.050781 34.9375 -7.375 C 34.15625 -5.695312 33.003906 -4.21875 31.484375 -2.9375 C 29.960938 -1.664062 28.085938 -0.65625 25.859375 0.09375 C 23.640625 0.84375 21.09375 1.21875 18.21875 1.21875 Z M 18.21875 1.21875 "/></g></g></g><g fill="#0071af" fill-opacity="1"><g transform="translate(198.438631, 74.757839)"><g><path d="M 9.109375 0.609375 C 7.734375 0.609375 6.578125 0.15625 5.640625 -0.75 C 4.710938 -1.664062 4.25 -2.734375 4.25 -3.953125 L 4.25 -37.953125 C 4.25 -39.160156 4.710938 -40.21875 5.640625 -41.125 C 6.578125 -42.039062 7.734375 -42.5 9.109375 -42.5 L 20.953125 -42.5 C 23.742188 -42.5 26.222656 -42.132812 28.390625 -41.40625 C 30.554688 -40.675781 32.363281 -39.671875 33.8125 -38.390625 C 35.269531 -37.117188 36.375 -35.582031 37.125 -33.78125 C 37.875 -31.988281 38.25 -30.039062 38.25 -27.9375 C 38.25 -25.789062 37.875 -23.828125 37.125 -22.046875 C 36.375 -20.265625 35.269531 -18.734375 33.8125 -17.453125 C 32.363281 -16.179688 30.554688 -15.179688 28.390625 -14.453125 C 26.222656 -13.722656 23.742188 -13.359375 20.953125 -13.359375 L 13.96875 -13.359375 L 13.96875 -3.953125 C 13.96875 -2.734375 13.5 -1.664062 12.5625 -0.75 C 11.632812 0.15625 10.484375 0.609375 9.109375 0.609375 Z M 20.953125 -21.859375 C 23.378906 -21.859375 25.195312 -22.414062 26.40625 -23.53125 C 27.625 -24.644531 28.234375 -26.113281 28.234375 -27.9375 C 28.234375 -29.75 27.625 -31.210938 26.40625 -32.328125 C 25.195312 -33.441406 23.378906 -34 20.953125 -34 L 13.96875 -34 L 13.96875 -21.859375 Z M 20.953125 -21.859375 "/></g></g></g><g fill="#0071af" fill-opacity="1"><g transform="translate(239.413324, 74.757839)"><g><path d="M 5.765625 0.609375 C 4.390625 0.609375 3.234375 0.15625 2.296875 -0.75 C 1.367188 -1.664062 0.90625 -2.734375 0.90625 -3.953125 C 0.90625 -4.316406 0.96875 -4.757812 1.09375 -5.28125 C 1.21875 -5.8125 1.359375 -6.316406 1.515625 -6.796875 C 1.679688 -7.367188 1.882812 -7.9375 2.125 -8.5 L 13.65625 -38.25 C 14.3125 -39.945312 15.191406 -41.28125 16.296875 -42.25 C 17.410156 -43.226562 18.960938 -43.71875 20.953125 -43.71875 C 22.929688 -43.71875 24.476562 -43.226562 25.59375 -42.25 C 26.707031 -41.28125 27.585938 -39.945312 28.234375 -38.25 L 39.765625 -8.5 C 40.015625 -7.9375 40.21875 -7.367188 40.375 -6.796875 C 40.539062 -6.316406 40.679688 -5.8125 40.796875 -5.28125 C 40.921875 -4.757812 40.984375 -4.316406 40.984375 -3.953125 C 40.984375 -2.734375 40.515625 -1.664062 39.578125 -0.75 C 38.648438 0.15625 37.5 0.609375 36.125 0.609375 C 34.75 0.609375 33.664062 0.234375 32.875 -0.515625 C 32.082031 -1.265625 31.445312 -2.304688 30.96875 -3.640625 L 28.84375 -9.40625 L 13.046875 -9.40625 L 10.921875 -3.640625 C 10.441406 -2.304688 9.804688 -1.265625 9.015625 -0.515625 C 8.222656 0.234375 7.140625 0.609375 5.765625 0.609375 Z M 26.109375 -17.90625 L 21.25 -32.1875 L 20.640625 -32.1875 L 15.78125 -17.90625 Z M 26.109375 -17.90625 "/></g></g></g><g fill="#0071af" fill-opacity="1"><g transform="translate(281.298559, 74.757839)"><g><path d="M 9.109375 0.609375 C 7.734375 0.609375 6.578125 0.15625 5.640625 -0.75 C 4.710938 -1.664062 4.25 -2.734375 4.25 -3.953125 L 4.25 -37.953125 C 4.25 -39.160156 4.710938 -40.21875 5.640625 -41.125 C 6.578125 -42.039062 7.734375 -42.5 9.109375 -42.5 L 22.15625 -42.5 C 24.75 -42.5 27.035156 -42.15625 29.015625 -41.46875 C 31.003906 -40.78125 32.6875 -39.835938 34.0625 -38.640625 C 35.4375 -37.453125 36.476562 -36.046875 37.1875 -34.421875 C 37.894531 -32.804688 38.25 -31.046875 38.25 -29.140625 C 38.25 -27.160156 37.875 -25.507812 37.125 -24.1875 C 36.375 -22.875 35.535156 -21.816406 34.609375 -21.015625 C 33.554688 -20.078125 32.34375 -19.347656 30.96875 -18.828125 L 30.96875 -18.21875 L 38.5625 -8.203125 C 38.882812 -7.753906 39.1875 -7.304688 39.46875 -6.859375 C 39.664062 -6.453125 39.863281 -5.992188 40.0625 -5.484375 C 40.269531 -4.984375 40.375 -4.472656 40.375 -3.953125 C 40.375 -2.734375 39.90625 -1.664062 38.96875 -0.75 C 38.039062 0.15625 36.890625 0.609375 35.515625 0.609375 C 34.460938 0.609375 33.601562 0.359375 32.9375 -0.140625 C 32.269531 -0.648438 31.710938 -1.210938 31.265625 -1.828125 L 21.25 -15.78125 L 13.96875 -15.78125 L 13.96875 -3.953125 C 13.96875 -2.734375 13.5 -1.664062 12.5625 -0.75 C 11.632812 0.15625 10.484375 0.609375 9.109375 0.609375 Z M 22.15625 -24.28125 C 24.144531 -24.28125 25.65625 -24.742188 26.6875 -25.671875 C 27.71875 -26.609375 28.234375 -27.765625 28.234375 -29.140625 C 28.234375 -30.515625 27.71875 -31.664062 26.6875 -32.59375 C 25.65625 -33.53125 24.144531 -34 22.15625 -34 L 13.96875 -34 L 13.96875 -24.28125 Z M 22.15625 -24.28125 "/></g></g></g><g fill="#0071af" fill-opacity="1"><g transform="translate(323.183794, 74.757839)"><g><path d="M 9.109375 0.609375 C 7.734375 0.609375 6.578125 0.15625 5.640625 -0.75 C 4.710938 -1.664062 4.25 -2.734375 4.25 -3.953125 L 4.25 -38.5625 C 4.25 -39.769531 4.710938 -40.828125 5.640625 -41.734375 C 6.578125 -42.648438 7.734375 -43.109375 9.109375 -43.109375 C 10.484375 -43.109375 11.632812 -42.648438 12.5625 -41.734375 C 13.5 -40.828125 13.96875 -39.769531 13.96875 -38.5625 L 13.96875 -25.8125 L 20.34375 -25.8125 L 30.359375 -40.6875 C 30.804688 -41.289062 31.363281 -41.84375 32.03125 -42.34375 C 32.695312 -42.851562 33.554688 -43.109375 34.609375 -43.109375 C 35.984375 -43.109375 37.132812 -42.648438 38.0625 -41.734375 C 39 -40.828125 39.46875 -39.769531 39.46875 -38.5625 C 39.46875 -37.507812 39.242188 -36.644531 38.796875 -35.96875 C 38.347656 -35.300781 37.960938 -34.75 37.640625 -34.3125 L 28.84375 -21.859375 L 38.25 -8.203125 C 38.570312 -7.753906 38.957031 -7.195312 39.40625 -6.53125 C 39.851562 -5.863281 40.078125 -5.003906 40.078125 -3.953125 C 40.078125 -2.734375 39.609375 -1.664062 38.671875 -0.75 C 37.742188 0.15625 36.59375 0.609375 35.21875 0.609375 C 34.164062 0.609375 33.304688 0.359375 32.640625 -0.140625 C 31.972656 -0.648438 31.414062 -1.210938 30.96875 -1.828125 L 20.34375 -17.3125 L 13.96875 -17.3125 L 13.96875 -3.953125 C 13.96875 -2.734375 13.5 -1.664062 12.5625 -0.75 C 11.632812 0.15625 10.484375 0.609375 9.109375 0.609375 Z M 9.109375 0.609375 "/></g></g></g><g fill="#0071af" fill-opacity="1"><g transform="translate(364.462001, 74.757839)"><g/></g></g><g fill="#0071af" fill-opacity="1"><g transform="translate(380.548365, 74.757839)"><g><path d="M 17.3125 1.21875 C 15.601562 1.21875 14.179688 0.679688 13.046875 -0.390625 C 11.921875 -1.460938 11.113281 -2.847656 10.625 -4.546875 L 2.125 -34 C 1.957031 -34.570312 1.796875 -35.140625 1.640625 -35.703125 C 1.515625 -36.191406 1.410156 -36.6875 1.328125 -37.1875 C 1.253906 -37.695312 1.21875 -38.15625 1.21875 -38.5625 C 1.21875 -39.769531 1.679688 -40.828125 2.609375 -41.734375 C 3.535156 -42.648438 4.691406 -43.109375 6.078125 -43.109375 C 8.742188 -43.109375 10.460938 -41.691406 11.234375 -38.859375 L 17.609375 -16.09375 L 18.21875 -16.09375 L 24.28125 -37.953125 C 24.644531 -39.328125 25.363281 -40.53125 26.4375 -41.5625 C 27.507812 -42.59375 28.816406 -43.109375 30.359375 -43.109375 C 31.898438 -43.109375 33.207031 -42.59375 34.28125 -41.5625 C 35.351562 -40.53125 36.070312 -39.328125 36.4375 -37.953125 L 42.5 -16.09375 L 43.109375 -16.09375 L 49.484375 -38.859375 C 50.253906 -41.691406 51.972656 -43.109375 54.640625 -43.109375 C 56.023438 -43.109375 57.179688 -42.648438 58.109375 -41.734375 C 59.035156 -40.828125 59.5 -39.769531 59.5 -38.5625 C 59.5 -38.15625 59.445312 -37.695312 59.34375 -37.1875 C 59.25 -36.6875 59.140625 -36.191406 59.015625 -35.703125 L 58.59375 -34 L 50.09375 -4.546875 C 49.601562 -2.847656 48.789062 -1.460938 47.65625 -0.390625 C 46.53125 0.679688 45.113281 1.21875 43.40625 1.21875 C 41.707031 1.21875 40.28125 0.679688 39.125 -0.390625 C 37.976562 -1.460938 37.179688 -2.847656 36.734375 -4.546875 L 30.65625 -26.40625 L 30.0625 -26.40625 L 23.984375 -4.546875 C 23.535156 -2.847656 22.734375 -1.460938 21.578125 -0.390625 C 20.429688 0.679688 19.007812 1.21875 17.3125 1.21875 Z M 17.3125 1.21875 "/></g></g></g><g fill="#0071af" fill-opacity="1"><g transform="translate(441.251609, 74.757839)"><g><path d="M 9.109375 0 C 7.734375 0 6.578125 -0.453125 5.640625 -1.359375 C 4.710938 -2.273438 4.25 -3.335938 4.25 -4.546875 L 4.25 -37.953125 C 4.25 -39.160156 4.710938 -40.21875 5.640625 -41.125 C 6.578125 -42.039062 7.734375 -42.5 9.109375 -42.5 L 32.484375 -42.5 C 34.023438 -42.5 35.21875 -42.09375 36.0625 -41.28125 C 36.914062 -40.476562 37.34375 -39.46875 37.34375 -38.25 C 37.34375 -37.039062 36.914062 -36.03125 36.0625 -35.21875 C 35.21875 -34.40625 34.023438 -34 32.484375 -34 L 13.96875 -34 L 13.96875 -25.5 L 27.015625 -25.5 C 28.554688 -25.5 29.75 -25.09375 30.59375 -24.28125 C 31.445312 -23.476562 31.875 -22.46875 31.875 -21.25 C 31.875 -20.039062 31.445312 -19.03125 30.59375 -18.21875 C 29.75 -17.40625 28.554688 -17 27.015625 -17 L 13.96875 -17 L 13.96875 -8.5 L 33.09375 -8.5 C 34.632812 -8.5 35.828125 -8.09375 36.671875 -7.28125 C 37.523438 -6.476562 37.953125 -5.46875 37.953125 -4.25 C 37.953125 -3.03125 37.523438 -2.015625 36.671875 -1.203125 C 35.828125 -0.398438 34.632812 0 33.09375 0 Z M 9.109375 0 "/></g></g></g><g fill="#0071af" fill-opacity="1"><g transform="translate(480.405198, 74.757839)"><g><path d="M 9.109375 0 C 7.734375 0 6.578125 -0.453125 5.640625 -1.359375 C 4.710938 -2.273438 4.25 -3.335938 4.25 -4.546875 L 4.25 -37.953125 C 4.25 -39.160156 4.710938 -40.21875 5.640625 -41.125 C 6.578125 -42.039062 7.734375 -42.5 9.109375 -42.5 L 22.46875 -42.5 C 25.132812 -42.5 27.421875 -42.210938 29.328125 -41.640625 C 31.234375 -41.078125 32.800781 -40.300781 34.03125 -39.3125 C 35.269531 -38.320312 36.179688 -37.160156 36.765625 -35.828125 C 37.347656 -34.492188 37.640625 -33.078125 37.640625 -31.578125 C 37.640625 -29.753906 37.285156 -28.253906 36.578125 -27.078125 C 35.867188 -25.898438 35.113281 -24.96875 34.3125 -24.28125 C 33.289062 -23.476562 32.175781 -22.875 30.96875 -22.46875 L 30.96875 -21.859375 C 32.539062 -21.492188 33.957031 -20.90625 35.21875 -20.09375 C 36.269531 -19.40625 37.238281 -18.421875 38.125 -17.140625 C 39.019531 -15.867188 39.46875 -14.203125 39.46875 -12.140625 C 39.46875 -10.398438 39.132812 -8.789062 38.46875 -7.3125 C 37.800781 -5.832031 36.785156 -4.546875 35.421875 -3.453125 C 34.066406 -2.367188 32.335938 -1.519531 30.234375 -0.90625 C 28.128906 -0.300781 25.640625 0 22.765625 0 Z M 22.765625 -7.890625 C 25.078125 -7.890625 26.769531 -8.351562 27.84375 -9.28125 C 28.914062 -10.21875 29.453125 -11.375 29.453125 -12.75 C 29.453125 -14.125 28.914062 -15.273438 27.84375 -16.203125 C 26.769531 -17.140625 25.078125 -17.609375 22.765625 -17.609375 L 13.96875 -17.609375 L 13.96875 -7.890625 Z M 22.46875 -25.5 C 24.164062 -25.5 25.5 -25.953125 26.46875 -26.859375 C 27.445312 -27.773438 27.9375 -28.84375 27.9375 -30.0625 C 27.9375 -31.269531 27.445312 -32.328125 26.46875 -33.234375 C 25.5 -34.148438 24.164062 -34.609375 22.46875 -34.609375 L 13.96875 -34.609375 L 13.96875 -25.5 Z M 22.46875 -25.5 "/></g></g></g><g fill="#0071af" fill-opacity="1"><g transform="translate(159.89207, 132.387786)"><g><path d="M 9.109375 0 C 7.734375 0 6.578125 -0.453125 5.640625 -1.359375 C 4.710938 -2.273438 4.25 -3.335938 4.25 -4.546875 L 4.25 -37.953125 C 4.25 -39.160156 4.710938 -40.21875 5.640625 -41.125 C 6.578125 -42.039062 7.734375 -42.5 9.109375 -42.5 L 20.640625 -42.5 C 23.359375 -42.5 25.859375 -42.050781 28.140625 -41.15625 C 30.429688 -40.269531 32.382812 -39.035156 34 -37.453125 C 35.625 -35.878906 36.890625 -34.019531 37.796875 -31.875 C 38.703125 -29.726562 39.15625 -27.398438 39.15625 -24.890625 L 39.15625 -17.609375 C 39.15625 -15.097656 38.703125 -12.769531 37.796875 -10.625 C 36.890625 -8.476562 35.625 -6.613281 34 -5.03125 C 32.382812 -3.457031 30.429688 -2.222656 28.140625 -1.328125 C 25.859375 -0.441406 23.359375 0 20.640625 0 Z M 20.640625 -8.5 C 23.234375 -8.5 25.296875 -9.285156 26.828125 -10.859375 C 28.367188 -12.441406 29.140625 -14.691406 29.140625 -17.609375 L 29.140625 -24.890625 C 29.140625 -27.804688 28.367188 -30.050781 26.828125 -31.625 C 25.296875 -33.207031 23.234375 -34 20.640625 -34 L 13.96875 -34 L 13.96875 -8.5 Z M 20.640625 -8.5 "/></g></g></g><g fill="#0071af" fill-opacity="1"><g transform="translate(202.687848, 132.387786)"><g><path d="M 9.109375 0 C 7.734375 0 6.578125 -0.453125 5.640625 -1.359375 C 4.710938 -2.273438 4.25 -3.335938 4.25 -4.546875 L 4.25 -37.953125 C 4.25 -39.160156 4.710938 -40.21875 5.640625 -41.125 C 6.578125 -42.039062 7.734375 -42.5 9.109375 -42.5 L 32.484375 -42.5 C 34.023438 -42.5 35.21875 -42.09375 36.0625 -41.28125 C 36.914062 -40.476562 37.34375 -39.46875 37.34375 -38.25 C 37.34375 -37.039062 36.914062 -36.03125 36.0625 -35.21875 C 35.21875 -34.40625 34.023438 -34 32.484375 -34 L 13.96875 -34 L 13.96875 -25.5 L 27.015625 -25.5 C 28.554688 -25.5 29.75 -25.09375 30.59375 -24.28125 C 31.445312 -23.476562 31.875 -22.46875 31.875 -21.25 C 31.875 -20.039062 31.445312 -19.03125 30.59375 -18.21875 C 29.75 -17.40625 28.554688 -17 27.015625 -17 L 13.96875 -17 L 13.96875 -8.5 L 33.09375 -8.5 C 34.632812 -8.5 35.828125 -8.09375 36.671875 -7.28125 C 37.523438 -6.476562 37.953125 -5.46875 37.953125 -4.25 C 37.953125 -3.03125 37.523438 -2.015625 36.671875 -1.203125 C 35.828125 -0.398438 34.632812 0 33.09375 0 Z M 9.109375 0 "/></g></g></g><g fill="#0071af" fill-opacity="1"><g transform="translate(241.841438, 132.387786)"><g><path d="M 18.21875 1.21875 C 15.707031 1.21875 13.4375 0.863281 11.40625 0.15625 C 9.382812 -0.550781 7.664062 -1.421875 6.25 -2.453125 C 4.832031 -3.484375 3.738281 -4.609375 2.96875 -5.828125 C 2.207031 -7.046875 1.828125 -8.140625 1.828125 -9.109375 C 1.828125 -10.316406 2.238281 -11.328125 3.0625 -12.140625 C 3.894531 -12.953125 5 -13.359375 6.375 -13.359375 C 7.507812 -13.359375 8.429688 -13.039062 9.140625 -12.40625 C 9.847656 -11.78125 10.585938 -11.082031 11.359375 -10.3125 C 12.128906 -9.550781 13.066406 -8.851562 14.171875 -8.21875 C 15.285156 -7.59375 16.835938 -7.28125 18.828125 -7.28125 C 21.253906 -7.28125 23.070312 -7.785156 24.28125 -8.796875 C 25.5 -9.816406 26.109375 -10.929688 26.109375 -12.140625 C 26.109375 -13.359375 25.539062 -14.320312 24.40625 -15.03125 C 23.269531 -15.738281 21.84375 -16.375 20.125 -16.9375 C 18.40625 -17.507812 16.550781 -18.085938 14.5625 -18.671875 C 12.582031 -19.253906 10.734375 -20.03125 9.015625 -21 C 7.296875 -21.976562 5.867188 -23.222656 4.734375 -24.734375 C 3.597656 -26.253906 3.03125 -28.226562 3.03125 -30.65625 C 3.03125 -32.476562 3.382812 -34.175781 4.09375 -35.75 C 4.800781 -37.332031 5.851562 -38.722656 7.25 -39.921875 C 8.644531 -41.117188 10.351562 -42.050781 12.375 -42.71875 C 14.40625 -43.382812 16.757812 -43.71875 19.4375 -43.71875 C 21.863281 -43.71875 24.046875 -43.382812 25.984375 -42.71875 C 27.929688 -42.050781 29.59375 -41.207031 30.96875 -40.1875 C 32.34375 -39.175781 33.394531 -38.082031 34.125 -36.90625 C 34.851562 -35.738281 35.21875 -34.671875 35.21875 -33.703125 C 35.21875 -32.484375 34.800781 -31.46875 33.96875 -30.65625 C 33.144531 -29.851562 32.039062 -29.453125 30.65625 -29.453125 C 29.894531 -29.453125 29.238281 -29.59375 28.6875 -29.875 C 28.144531 -30.15625 27.640625 -30.507812 27.171875 -30.9375 C 26.703125 -31.363281 26.234375 -31.828125 25.765625 -32.328125 C 25.304688 -32.835938 24.757812 -33.300781 24.125 -33.71875 C 23.5 -34.144531 22.757812 -34.5 21.90625 -34.78125 C 21.0625 -35.070312 20.035156 -35.21875 18.828125 -35.21875 C 16.835938 -35.21875 15.375 -34.820312 14.4375 -34.03125 C 13.507812 -33.238281 13.046875 -32.316406 13.046875 -31.265625 C 13.046875 -30.054688 13.613281 -29.097656 14.75 -28.390625 C 15.882812 -27.679688 17.3125 -27.039062 19.03125 -26.46875 C 20.75 -25.90625 22.597656 -25.328125 24.578125 -24.734375 C 26.566406 -24.148438 28.421875 -23.375 30.140625 -22.40625 C 31.867188 -21.4375 33.296875 -20.191406 34.421875 -18.671875 C 35.554688 -17.148438 36.125 -15.175781 36.125 -12.75 C 36.125 -10.84375 35.726562 -9.050781 34.9375 -7.375 C 34.15625 -5.695312 33.003906 -4.21875 31.484375 -2.9375 C 29.960938 -1.664062 28.085938 -0.65625 25.859375 0.09375 C 23.640625 0.84375 21.09375 1.21875 18.21875 1.21875 Z M 18.21875 1.21875 "/></g></g></g><g fill="#0071af" fill-opacity="1"><g transform="translate(280.387998, 132.387786)"><g><path d="M 9.40625 0.609375 C 8.03125 0.609375 6.875 0.15625 5.9375 -0.75 C 5.007812 -1.664062 4.546875 -2.734375 4.546875 -3.953125 L 4.546875 -38.5625 C 4.546875 -39.769531 5.007812 -40.828125 5.9375 -41.734375 C 6.875 -42.648438 8.03125 -43.109375 9.40625 -43.109375 C 10.78125 -43.109375 11.929688 -42.648438 12.859375 -41.734375 C 13.796875 -40.828125 14.265625 -39.769531 14.265625 -38.5625 L 14.265625 -3.953125 C 14.265625 -2.734375 13.796875 -1.664062 12.859375 -0.75 C 11.929688 0.15625 10.78125 0.609375 9.40625 0.609375 Z M 9.40625 0.609375 "/></g></g></g><g fill="#0071af" fill-opacity="1"><g transform="translate(299.206008, 132.387786)"><g><path d="M 22.15625 1.21875 C 19.40625 1.21875 16.894531 0.773438 14.625 -0.109375 C 12.363281 -1.003906 10.421875 -2.238281 8.796875 -3.8125 C 7.179688 -5.394531 5.914062 -7.257812 5 -9.40625 C 4.09375 -11.550781 3.640625 -13.878906 3.640625 -16.390625 L 3.640625 -26.109375 C 3.640625 -28.617188 4.09375 -30.945312 5 -33.09375 C 5.914062 -35.238281 7.179688 -37.097656 8.796875 -38.671875 C 10.421875 -40.253906 12.363281 -41.488281 14.625 -42.375 C 16.894531 -43.269531 19.40625 -43.71875 22.15625 -43.71875 C 24.59375 -43.71875 26.78125 -43.382812 28.71875 -42.71875 C 30.664062 -42.050781 32.328125 -41.207031 33.703125 -40.1875 C 35.078125 -39.175781 36.128906 -38.082031 36.859375 -36.90625 C 37.585938 -35.738281 37.953125 -34.671875 37.953125 -33.703125 C 37.953125 -32.484375 37.535156 -31.46875 36.703125 -30.65625 C 35.867188 -29.851562 34.765625 -29.453125 33.390625 -29.453125 C 32.253906 -29.453125 31.34375 -29.753906 30.65625 -30.359375 C 29.96875 -30.960938 29.269531 -31.617188 28.5625 -32.328125 C 27.851562 -33.035156 27.023438 -33.691406 26.078125 -34.296875 C 25.128906 -34.910156 23.820312 -35.21875 22.15625 -35.21875 C 19.570312 -35.21875 17.507812 -34.425781 15.96875 -32.84375 C 14.425781 -31.269531 13.65625 -29.023438 13.65625 -26.109375 L 13.65625 -16.390625 C 13.65625 -13.472656 14.425781 -11.222656 15.96875 -9.640625 C 17.507812 -8.066406 19.570312 -7.28125 22.15625 -7.28125 C 23.457031 -7.28125 24.539062 -7.398438 25.40625 -7.640625 C 26.28125 -7.890625 27 -8.175781 27.5625 -8.5 C 28.207031 -8.863281 28.734375 -9.269531 29.140625 -9.71875 L 29.140625 -16.09375 L 25.5 -16.09375 C 23.957031 -16.09375 22.757812 -16.492188 21.90625 -17.296875 C 21.0625 -18.109375 20.640625 -19.125 20.640625 -20.34375 C 20.640625 -21.550781 21.0625 -22.5625 21.90625 -23.375 C 22.757812 -24.1875 23.957031 -24.59375 25.5 -24.59375 L 34 -24.59375 C 35.375 -24.59375 36.523438 -24.132812 37.453125 -23.21875 C 38.390625 -22.3125 38.859375 -21.25 38.859375 -20.03125 L 38.859375 -8.5 C 38.859375 -7.644531 38.472656 -6.660156 37.703125 -5.546875 C 36.929688 -4.441406 35.828125 -3.390625 34.390625 -2.390625 C 32.953125 -1.398438 31.203125 -0.550781 29.140625 0.15625 C 27.078125 0.863281 24.75 1.21875 22.15625 1.21875 Z M 22.15625 1.21875 "/></g></g></g><g fill="#0071af" fill-opacity="1"><g transform="translate(341.698271, 132.387786)"><g><path d="M 9.109375 0.609375 C 7.734375 0.609375 6.578125 0.15625 5.640625 -0.75 C 4.710938 -1.664062 4.25 -2.734375 4.25 -3.953125 L 4.25 -38.5625 C 4.25 -39.769531 4.722656 -40.828125 5.671875 -41.734375 C 6.628906 -42.648438 7.875 -43.109375 9.40625 -43.109375 C 10.78125 -43.109375 11.929688 -42.703125 12.859375 -41.890625 C 13.796875 -41.085938 14.671875 -40.078125 15.484375 -38.859375 L 29.75 -17.3125 L 30.359375 -17.3125 L 30.359375 -38.5625 C 30.359375 -39.769531 30.820312 -40.828125 31.75 -41.734375 C 32.6875 -42.648438 33.84375 -43.109375 35.21875 -43.109375 C 36.59375 -43.109375 37.742188 -42.648438 38.671875 -41.734375 C 39.609375 -40.828125 40.078125 -39.769531 40.078125 -38.5625 L 40.078125 -3.953125 C 40.078125 -2.691406 39.597656 -1.613281 38.640625 -0.71875 C 37.691406 0.164062 36.445312 0.609375 34.90625 0.609375 C 33.53125 0.609375 32.378906 0.203125 31.453125 -0.609375 C 30.523438 -1.421875 29.65625 -2.429688 28.84375 -3.640625 L 14.578125 -25.203125 L 13.96875 -25.203125 L 13.96875 -3.953125 C 13.96875 -2.734375 13.5 -1.664062 12.5625 -0.75 C 11.632812 0.15625 10.484375 0.609375 9.109375 0.609375 Z M 9.109375 0.609375 "/></g></g></g></svg>