<svg xmlns="http://www.w3.org/2000/svg" xmlns:xlink="http://www.w3.org/1999/xlink" width="700" zoomAndPan="magnify" viewBox="0 0 525 149.999998" height="200" preserveAspectRatio="xMidYMid meet" version="1.0"><defs><g/><clipPath id="3bc4b662f7"><path d="M 28.730469 9 L 103 9 L 103 119 L 28.730469 119 Z M 28.730469 9 " clip-rule="nonzero"/></clipPath><clipPath id="1834aa68f7"><path d="M 102 44 L 175.730469 44 L 175.730469 148.878906 L 102 148.878906 Z M 102 44 " clip-rule="nonzero"/></clipPath><clipPath id="7fd3994746"><path d="M 28.730469 75 L 146 75 L 146 148.878906 L 28.730469 148.878906 Z M 28.730469 75 " clip-rule="nonzero"/></clipPath><clipPath id="4ab67641ed"><path d="M 106 1.878906 L 146 1.878906 L 146 42 L 106 42 Z M 106 1.878906 " clip-rule="nonzero"/></clipPath></defs><g clip-path="url(#3bc4b662f7)"><path fill="#817bb8" d="M 28.730469 118.566406 L 102.269531 75.410156 L 70.371094 21.0625 C 59.230469 2.074219 29.753906 8.878906 28.761719 30.875 C 28.738281 31.332031 28.730469 31.800781 28.730469 32.265625 L 28.730469 118.566406 " fill-opacity="1" fill-rule="nonzero"/></g><g clip-path="url(#1834aa68f7)"><path fill="#e62b4a" d="M 145.417969 148.949219 C 162.199219 148.949219 175.804688 135.347656 175.804688 118.566406 L 175.800781 61.0625 C 175.800781 48.316406 161.957031 40.386719 150.957031 46.839844 L 102.269531 75.414062 L 145.417969 148.949219 " fill-opacity="1" fill-rule="nonzero"/></g><g clip-path="url(#7fd3994746)"><path fill="#985288" d="M 59.117188 148.949219 L 145.417969 148.949219 L 102.269531 75.414062 L 28.730469 118.566406 C 28.730469 119.285156 28.753906 120 28.808594 120.710938 C 29.90625 136.488281 43.058594 148.949219 59.117188 148.949219 " fill-opacity="1" fill-rule="nonzero"/></g><g clip-path="url(#4ab67641ed)"><path fill="#c6488c" d="M 145.417969 21.53125 C 145.417969 32.386719 136.621094 41.1875 125.765625 41.1875 C 114.914062 41.1875 106.113281 32.386719 106.113281 21.53125 C 106.117188 10.679688 114.914062 1.878906 125.765625 1.878906 C 136.621094 1.878906 145.417969 10.675781 145.417969 21.53125 Z M 145.417969 21.53125 " fill-opacity="1" fill-rule="nonzero"/></g><g fill="#ffffff" fill-opacity="1"><g transform="translate(179.039188, 75.196836)"><g><path d="M 16.4375 1.09375 C 14.175781 1.09375 12.128906 0.769531 10.296875 0.125 C 8.472656 -0.507812 6.921875 -1.289062 5.640625 -2.21875 C 4.367188 -3.15625 3.382812 -4.171875 2.6875 -5.265625 C 1.988281 -6.359375 1.640625 -7.34375 1.640625 -8.21875 C 1.640625 -9.3125 2.015625 -10.222656 2.765625 -10.953125 C 3.515625 -11.691406 4.507812 -12.0625 5.75 -12.0625 C 6.78125 -12.0625 7.613281 -11.773438 8.25 -11.203125 C 8.882812 -10.640625 9.550781 -10.007812 10.25 -9.3125 C 10.945312 -8.625 11.796875 -7.992188 12.796875 -7.421875 C 13.804688 -6.859375 15.203125 -6.578125 16.984375 -6.578125 C 19.179688 -6.578125 20.828125 -7.03125 21.921875 -7.9375 C 23.015625 -8.851562 23.5625 -9.863281 23.5625 -10.96875 C 23.5625 -12.0625 23.050781 -12.925781 22.03125 -13.5625 C 21.007812 -14.207031 19.722656 -14.785156 18.171875 -15.296875 C 16.617188 -15.804688 14.945312 -16.328125 13.15625 -16.859375 C 11.363281 -17.390625 9.691406 -18.09375 8.140625 -18.96875 C 6.585938 -19.84375 5.296875 -20.960938 4.265625 -22.328125 C 3.242188 -23.703125 2.734375 -25.488281 2.734375 -27.6875 C 2.734375 -29.320312 3.050781 -30.851562 3.6875 -32.28125 C 4.332031 -33.707031 5.285156 -34.957031 6.546875 -36.03125 C 7.804688 -37.113281 9.347656 -37.957031 11.171875 -38.5625 C 13.003906 -39.164062 15.128906 -39.46875 17.546875 -39.46875 C 19.734375 -39.46875 21.703125 -39.164062 23.453125 -38.5625 C 25.210938 -37.957031 26.710938 -37.195312 27.953125 -36.28125 C 29.191406 -35.375 30.140625 -34.390625 30.796875 -33.328125 C 31.460938 -32.265625 31.796875 -31.296875 31.796875 -30.421875 C 31.796875 -29.328125 31.421875 -28.410156 30.671875 -27.671875 C 29.921875 -26.941406 28.925781 -26.578125 27.6875 -26.578125 C 26.988281 -26.578125 26.390625 -26.703125 25.890625 -26.953125 C 25.398438 -27.210938 24.941406 -27.535156 24.515625 -27.921875 C 24.097656 -28.304688 23.679688 -28.726562 23.265625 -29.1875 C 22.847656 -29.644531 22.351562 -30.066406 21.78125 -30.453125 C 21.21875 -30.835938 20.550781 -31.15625 19.78125 -31.40625 C 19.019531 -31.664062 18.085938 -31.796875 16.984375 -31.796875 C 15.203125 -31.796875 13.890625 -31.4375 13.046875 -30.71875 C 12.203125 -30.007812 11.78125 -29.179688 11.78125 -28.234375 C 11.78125 -27.128906 12.289062 -26.257812 13.3125 -25.625 C 14.34375 -24.988281 15.632812 -24.410156 17.1875 -23.890625 C 18.738281 -23.378906 20.410156 -22.859375 22.203125 -22.328125 C 23.992188 -21.804688 25.664062 -21.101562 27.21875 -20.21875 C 28.769531 -19.34375 30.054688 -18.21875 31.078125 -16.84375 C 32.097656 -15.476562 32.609375 -13.703125 32.609375 -11.515625 C 32.609375 -9.796875 32.25 -8.175781 31.53125 -6.65625 C 30.820312 -5.144531 29.78125 -3.8125 28.40625 -2.65625 C 27.039062 -1.507812 25.351562 -0.597656 23.34375 0.078125 C 21.332031 0.753906 19.03125 1.09375 16.4375 1.09375 Z M 16.4375 1.09375 "/></g></g></g><g fill="#ffffff" fill-opacity="1"><g transform="translate(213.836901, 75.196836)"><g><path d="M 8.21875 0.546875 C 6.976562 0.546875 5.9375 0.132812 5.09375 -0.6875 C 4.257812 -1.507812 3.84375 -2.46875 3.84375 -3.5625 L 3.84375 -34.25 C 3.84375 -35.351562 4.257812 -36.316406 5.09375 -37.140625 C 5.9375 -37.960938 6.976562 -38.375 8.21875 -38.375 L 18.90625 -38.375 C 21.425781 -38.375 23.664062 -38.039062 25.625 -37.375 C 27.582031 -36.71875 29.21875 -35.8125 30.53125 -34.65625 C 31.84375 -33.507812 32.835938 -32.125 33.515625 -30.5 C 34.191406 -28.875 34.53125 -27.113281 34.53125 -25.21875 C 34.53125 -23.28125 34.191406 -21.503906 33.515625 -19.890625 C 32.835938 -18.285156 31.84375 -16.90625 30.53125 -15.75 C 29.21875 -14.601562 27.582031 -13.703125 25.625 -13.046875 C 23.664062 -12.390625 21.425781 -12.0625 18.90625 -12.0625 L 12.609375 -12.0625 L 12.609375 -3.5625 C 12.609375 -2.46875 12.1875 -1.507812 11.34375 -0.6875 C 10.5 0.132812 9.457031 0.546875 8.21875 0.546875 Z M 18.90625 -19.734375 C 21.101562 -19.734375 22.75 -20.234375 23.84375 -21.234375 C 24.9375 -22.242188 25.484375 -23.570312 25.484375 -25.21875 C 25.484375 -26.863281 24.9375 -28.1875 23.84375 -29.1875 C 22.75 -30.1875 21.101562 -30.6875 18.90625 -30.6875 L 12.609375 -30.6875 L 12.609375 -19.734375 Z M 18.90625 -19.734375 "/></g></g></g><g fill="#ffffff" fill-opacity="1"><g transform="translate(250.826599, 75.196836)"><g><path d="M 5.203125 0.546875 C 3.960938 0.546875 2.921875 0.132812 2.078125 -0.6875 C 1.242188 -1.507812 0.828125 -2.46875 0.828125 -3.5625 C 0.828125 -3.894531 0.878906 -4.296875 0.984375 -4.765625 C 1.097656 -5.242188 1.226562 -5.703125 1.375 -6.140625 C 1.519531 -6.648438 1.703125 -7.160156 1.921875 -7.671875 L 12.328125 -34.53125 C 12.910156 -36.0625 13.703125 -37.265625 14.703125 -38.140625 C 15.710938 -39.023438 17.113281 -39.46875 18.90625 -39.46875 C 20.695312 -39.46875 22.09375 -39.023438 23.09375 -38.140625 C 24.101562 -37.265625 24.898438 -36.0625 25.484375 -34.53125 L 35.90625 -7.671875 C 36.125 -7.160156 36.304688 -6.648438 36.453125 -6.140625 C 36.597656 -5.703125 36.722656 -5.242188 36.828125 -4.765625 C 36.941406 -4.296875 37 -3.894531 37 -3.5625 C 37 -2.46875 36.578125 -1.507812 35.734375 -0.6875 C 34.898438 0.132812 33.859375 0.546875 32.609375 0.546875 C 31.367188 0.546875 30.390625 0.207031 29.671875 -0.46875 C 28.960938 -1.144531 28.390625 -2.082031 27.953125 -3.28125 L 26.03125 -8.5 L 11.78125 -8.5 L 9.859375 -3.28125 C 9.421875 -2.082031 8.847656 -1.144531 8.140625 -0.46875 C 7.429688 0.207031 6.453125 0.546875 5.203125 0.546875 Z M 23.5625 -16.171875 L 19.1875 -29.046875 L 18.640625 -29.046875 L 14.25 -16.171875 Z M 23.5625 -16.171875 "/></g></g></g><g fill="#ffffff" fill-opacity="1"><g transform="translate(288.638284, 75.196836)"><g><path d="M 8.21875 0.546875 C 6.976562 0.546875 5.9375 0.132812 5.09375 -0.6875 C 4.257812 -1.507812 3.84375 -2.46875 3.84375 -3.5625 L 3.84375 -34.25 C 3.84375 -35.351562 4.257812 -36.316406 5.09375 -37.140625 C 5.9375 -37.960938 6.976562 -38.375 8.21875 -38.375 L 20 -38.375 C 22.34375 -38.375 24.410156 -38.0625 26.203125 -37.4375 C 27.992188 -36.8125 29.507812 -35.957031 30.75 -34.875 C 31.988281 -33.800781 32.925781 -32.535156 33.5625 -31.078125 C 34.207031 -29.617188 34.53125 -28.03125 34.53125 -26.3125 C 34.53125 -24.519531 34.191406 -23.03125 33.515625 -21.84375 C 32.835938 -20.65625 32.082031 -19.695312 31.25 -18.96875 C 30.289062 -18.125 29.191406 -17.460938 27.953125 -16.984375 L 27.953125 -16.4375 L 34.8125 -7.40625 C 35.101562 -7 35.375 -6.59375 35.625 -6.1875 C 35.8125 -5.820312 35.992188 -5.410156 36.171875 -4.953125 C 36.359375 -4.503906 36.453125 -4.039062 36.453125 -3.5625 C 36.453125 -2.46875 36.03125 -1.507812 35.1875 -0.6875 C 34.34375 0.132812 33.300781 0.546875 32.0625 0.546875 C 31.113281 0.546875 30.335938 0.316406 29.734375 -0.140625 C 29.128906 -0.597656 28.628906 -1.097656 28.234375 -1.640625 L 19.1875 -14.25 L 12.609375 -14.25 L 12.609375 -3.5625 C 12.609375 -2.46875 12.1875 -1.507812 11.34375 -0.6875 C 10.5 0.132812 9.457031 0.546875 8.21875 0.546875 Z M 20 -21.921875 C 21.789062 -21.921875 23.148438 -22.34375 24.078125 -23.1875 C 25.015625 -24.03125 25.484375 -25.070312 25.484375 -26.3125 C 25.484375 -27.550781 25.015625 -28.585938 24.078125 -29.421875 C 23.148438 -30.265625 21.789062 -30.6875 20 -30.6875 L 12.609375 -30.6875 L 12.609375 -21.921875 Z M 20 -21.921875 "/></g></g></g><g fill="#ffffff" fill-opacity="1"><g transform="translate(326.449969, 75.196836)"><g><path d="M 8.21875 0.546875 C 6.976562 0.546875 5.9375 0.132812 5.09375 -0.6875 C 4.257812 -1.507812 3.84375 -2.46875 3.84375 -3.5625 L 3.84375 -34.8125 C 3.84375 -35.90625 4.257812 -36.863281 5.09375 -37.6875 C 5.9375 -38.507812 6.976562 -38.921875 8.21875 -38.921875 C 9.457031 -38.921875 10.5 -38.507812 11.34375 -37.6875 C 12.1875 -36.863281 12.609375 -35.90625 12.609375 -34.8125 L 12.609375 -23.296875 L 18.359375 -23.296875 L 27.40625 -36.71875 C 27.8125 -37.269531 28.3125 -37.773438 28.90625 -38.234375 C 29.507812 -38.691406 30.289062 -38.921875 31.25 -38.921875 C 32.488281 -38.921875 33.523438 -38.507812 34.359375 -37.6875 C 35.203125 -36.863281 35.625 -35.90625 35.625 -34.8125 C 35.625 -33.851562 35.421875 -33.070312 35.015625 -32.46875 C 34.617188 -31.875 34.273438 -31.375 33.984375 -30.96875 L 26.03125 -19.734375 L 34.53125 -7.40625 C 34.820312 -7 35.164062 -6.492188 35.5625 -5.890625 C 35.96875 -5.285156 36.171875 -4.507812 36.171875 -3.5625 C 36.171875 -2.46875 35.75 -1.507812 34.90625 -0.6875 C 34.070312 0.132812 33.035156 0.546875 31.796875 0.546875 C 30.835938 0.546875 30.054688 0.316406 29.453125 -0.140625 C 28.859375 -0.597656 28.359375 -1.097656 27.953125 -1.640625 L 18.359375 -15.625 L 12.609375 -15.625 L 12.609375 -3.5625 C 12.609375 -2.46875 12.1875 -1.507812 11.34375 -0.6875 C 10.5 0.132812 9.457031 0.546875 8.21875 0.546875 Z M 8.21875 0.546875 "/></g></g></g><g fill="#ffffff" fill-opacity="1"><g transform="translate(363.713664, 75.196836)"><g/></g></g><g fill="#ffffff" fill-opacity="1"><g transform="translate(378.235547, 75.196836)"><g><path d="M 15.625 1.09375 C 14.082031 1.09375 12.800781 0.609375 11.78125 -0.359375 C 10.757812 -1.328125 10.03125 -2.578125 9.59375 -4.109375 L 1.921875 -30.6875 C 1.773438 -31.207031 1.628906 -31.722656 1.484375 -32.234375 C 1.367188 -32.671875 1.273438 -33.113281 1.203125 -33.5625 C 1.128906 -34.019531 1.09375 -34.4375 1.09375 -34.8125 C 1.09375 -35.90625 1.515625 -36.863281 2.359375 -37.6875 C 3.203125 -38.507812 4.242188 -38.921875 5.484375 -38.921875 C 7.890625 -38.921875 9.441406 -37.640625 10.140625 -35.078125 L 15.890625 -14.53125 L 16.4375 -14.53125 L 21.921875 -34.25 C 22.253906 -35.5 22.90625 -36.585938 23.875 -37.515625 C 24.84375 -38.453125 26.019531 -38.921875 27.40625 -38.921875 C 28.789062 -38.921875 29.96875 -38.453125 30.9375 -37.515625 C 31.90625 -36.585938 32.554688 -35.5 32.890625 -34.25 L 38.375 -14.53125 L 38.921875 -14.53125 L 44.671875 -35.078125 C 45.367188 -37.640625 46.921875 -38.921875 49.328125 -38.921875 C 50.566406 -38.921875 51.609375 -38.507812 52.453125 -37.6875 C 53.296875 -36.863281 53.71875 -35.90625 53.71875 -34.8125 C 53.71875 -34.4375 53.671875 -34.019531 53.578125 -33.5625 C 53.484375 -33.113281 53.382812 -32.671875 53.28125 -32.234375 L 52.890625 -30.6875 L 45.21875 -4.109375 C 44.78125 -2.578125 44.050781 -1.328125 43.03125 -0.359375 C 42.007812 0.609375 40.726562 1.09375 39.1875 1.09375 C 37.65625 1.09375 36.367188 0.609375 35.328125 -0.359375 C 34.285156 -1.328125 33.5625 -2.578125 33.15625 -4.109375 L 27.6875 -23.84375 L 27.125 -23.84375 L 21.65625 -4.109375 C 21.25 -2.578125 20.523438 -1.328125 19.484375 -0.359375 C 18.441406 0.609375 17.15625 1.09375 15.625 1.09375 Z M 15.625 1.09375 "/></g></g></g><g fill="#ffffff" fill-opacity="1"><g transform="translate(433.035095, 75.196836)"><g><path d="M 8.21875 0 C 6.976562 0 5.9375 -0.410156 5.09375 -1.234375 C 4.257812 -2.054688 3.84375 -3.015625 3.84375 -4.109375 L 3.84375 -34.25 C 3.84375 -35.351562 4.257812 -36.316406 5.09375 -37.140625 C 5.9375 -37.960938 6.976562 -38.375 8.21875 -38.375 L 29.328125 -38.375 C 30.710938 -38.375 31.785156 -38.003906 32.546875 -37.265625 C 33.316406 -36.535156 33.703125 -35.625 33.703125 -34.53125 C 33.703125 -33.4375 33.316406 -32.519531 32.546875 -31.78125 C 31.785156 -31.050781 30.710938 -30.6875 29.328125 -30.6875 L 12.609375 -30.6875 L 12.609375 -23.015625 L 24.390625 -23.015625 C 25.773438 -23.015625 26.851562 -22.648438 27.625 -21.921875 C 28.394531 -21.191406 28.78125 -20.28125 28.78125 -19.1875 C 28.78125 -18.09375 28.394531 -17.175781 27.625 -16.4375 C 26.851562 -15.707031 25.773438 -15.34375 24.390625 -15.34375 L 12.609375 -15.34375 L 12.609375 -7.671875 L 29.875 -7.671875 C 31.257812 -7.671875 32.332031 -7.304688 33.09375 -6.578125 C 33.863281 -5.847656 34.25 -4.9375 34.25 -3.84375 C 34.25 -2.738281 33.863281 -1.820312 33.09375 -1.09375 C 32.332031 -0.363281 31.257812 0 29.875 0 Z M 8.21875 0 "/></g></g></g><g fill="#ffffff" fill-opacity="1"><g transform="translate(468.380801, 75.196836)"><g><path d="M 8.21875 0 C 6.976562 0 5.9375 -0.410156 5.09375 -1.234375 C 4.257812 -2.054688 3.84375 -3.015625 3.84375 -4.109375 L 3.84375 -34.25 C 3.84375 -35.351562 4.257812 -36.316406 5.09375 -37.140625 C 5.9375 -37.960938 6.976562 -38.375 8.21875 -38.375 L 20.28125 -38.375 C 22.6875 -38.375 24.75 -38.113281 26.46875 -37.59375 C 28.1875 -37.082031 29.601562 -36.378906 30.71875 -35.484375 C 31.832031 -34.585938 32.65625 -33.535156 33.1875 -32.328125 C 33.71875 -31.128906 33.984375 -29.851562 33.984375 -28.5 C 33.984375 -26.851562 33.660156 -25.5 33.015625 -24.4375 C 32.378906 -23.382812 31.695312 -22.546875 30.96875 -21.921875 C 30.050781 -21.191406 29.046875 -20.644531 27.953125 -20.28125 L 27.953125 -19.734375 C 29.378906 -19.398438 30.660156 -18.867188 31.796875 -18.140625 C 32.742188 -17.523438 33.617188 -16.640625 34.421875 -15.484375 C 35.222656 -14.335938 35.625 -12.832031 35.625 -10.96875 C 35.625 -9.394531 35.320312 -7.941406 34.71875 -6.609375 C 34.113281 -5.273438 33.195312 -4.113281 31.96875 -3.125 C 30.75 -2.132812 29.191406 -1.363281 27.296875 -0.8125 C 25.398438 -0.269531 23.148438 0 20.546875 0 Z M 20.546875 -7.125 C 22.628906 -7.125 24.15625 -7.539062 25.125 -8.375 C 26.09375 -9.21875 26.578125 -10.265625 26.578125 -11.515625 C 26.578125 -12.753906 26.09375 -13.789062 25.125 -14.625 C 24.15625 -15.46875 22.628906 -15.890625 20.546875 -15.890625 L 12.609375 -15.890625 L 12.609375 -7.125 Z M 20.28125 -23.015625 C 21.8125 -23.015625 23.015625 -23.425781 23.890625 -24.25 C 24.773438 -25.070312 25.21875 -26.03125 25.21875 -27.125 C 25.21875 -28.226562 24.773438 -29.191406 23.890625 -30.015625 C 23.015625 -30.835938 21.8125 -31.25 20.28125 -31.25 L 12.609375 -31.25 L 12.609375 -23.015625 Z M 20.28125 -23.015625 "/></g></g></g><g fill="#ffffff" fill-opacity="1"><g transform="translate(179.039188, 127.221981)"><g><path d="M 8.21875 0 C 6.976562 0 5.9375 -0.410156 5.09375 -1.234375 C 4.257812 -2.054688 3.84375 -3.015625 3.84375 -4.109375 L 3.84375 -34.25 C 3.84375 -35.351562 4.257812 -36.316406 5.09375 -37.140625 C 5.9375 -37.960938 6.976562 -38.375 8.21875 -38.375 L 18.640625 -38.375 C 21.085938 -38.375 23.34375 -37.96875 25.40625 -37.15625 C 27.46875 -36.351562 29.226562 -35.238281 30.6875 -33.8125 C 32.15625 -32.394531 33.300781 -30.71875 34.125 -28.78125 C 34.945312 -26.84375 35.359375 -24.738281 35.359375 -22.46875 L 35.359375 -15.890625 C 35.359375 -13.628906 34.945312 -11.53125 34.125 -9.59375 C 33.300781 -7.65625 32.15625 -5.972656 30.6875 -4.546875 C 29.226562 -3.117188 27.46875 -2.003906 25.40625 -1.203125 C 23.34375 -0.398438 21.085938 0 18.640625 0 Z M 18.640625 -7.671875 C 20.972656 -7.671875 22.832031 -8.382812 24.21875 -9.8125 C 25.613281 -11.238281 26.3125 -13.265625 26.3125 -15.890625 L 26.3125 -22.46875 C 26.3125 -25.101562 25.613281 -27.128906 24.21875 -28.546875 C 22.832031 -29.972656 20.972656 -30.6875 18.640625 -30.6875 L 12.609375 -30.6875 L 12.609375 -7.671875 Z M 18.640625 -7.671875 "/></g></g></g><g fill="#ffffff" fill-opacity="1"><g transform="translate(217.672861, 127.221981)"><g><path d="M 8.21875 0 C 6.976562 0 5.9375 -0.410156 5.09375 -1.234375 C 4.257812 -2.054688 3.84375 -3.015625 3.84375 -4.109375 L 3.84375 -34.25 C 3.84375 -35.351562 4.257812 -36.316406 5.09375 -37.140625 C 5.9375 -37.960938 6.976562 -38.375 8.21875 -38.375 L 29.328125 -38.375 C 30.710938 -38.375 31.785156 -38.003906 32.546875 -37.265625 C 33.316406 -36.535156 33.703125 -35.625 33.703125 -34.53125 C 33.703125 -33.4375 33.316406 -32.519531 32.546875 -31.78125 C 31.785156 -31.050781 30.710938 -30.6875 29.328125 -30.6875 L 12.609375 -30.6875 L 12.609375 -23.015625 L 24.390625 -23.015625 C 25.773438 -23.015625 26.851562 -22.648438 27.625 -21.921875 C 28.394531 -21.191406 28.78125 -20.28125 28.78125 -19.1875 C 28.78125 -18.09375 28.394531 -17.175781 27.625 -16.4375 C 26.851562 -15.707031 25.773438 -15.34375 24.390625 -15.34375 L 12.609375 -15.34375 L 12.609375 -7.671875 L 29.875 -7.671875 C 31.257812 -7.671875 32.332031 -7.304688 33.09375 -6.578125 C 33.863281 -5.847656 34.25 -4.9375 34.25 -3.84375 C 34.25 -2.738281 33.863281 -1.820312 33.09375 -1.09375 C 32.332031 -0.363281 31.257812 0 29.875 0 Z M 8.21875 0 "/></g></g></g><g fill="#ffffff" fill-opacity="1"><g transform="translate(253.018567, 127.221981)"><g><path d="M 16.4375 1.09375 C 14.175781 1.09375 12.128906 0.769531 10.296875 0.125 C 8.472656 -0.507812 6.921875 -1.289062 5.640625 -2.21875 C 4.367188 -3.15625 3.382812 -4.171875 2.6875 -5.265625 C 1.988281 -6.359375 1.640625 -7.34375 1.640625 -8.21875 C 1.640625 -9.3125 2.015625 -10.222656 2.765625 -10.953125 C 3.515625 -11.691406 4.507812 -12.0625 5.75 -12.0625 C 6.78125 -12.0625 7.613281 -11.773438 8.25 -11.203125 C 8.882812 -10.640625 9.550781 -10.007812 10.25 -9.3125 C 10.945312 -8.625 11.796875 -7.992188 12.796875 -7.421875 C 13.804688 -6.859375 15.203125 -6.578125 16.984375 -6.578125 C 19.179688 -6.578125 20.828125 -7.03125 21.921875 -7.9375 C 23.015625 -8.851562 23.5625 -9.863281 23.5625 -10.96875 C 23.5625 -12.0625 23.050781 -12.925781 22.03125 -13.5625 C 21.007812 -14.207031 19.722656 -14.785156 18.171875 -15.296875 C 16.617188 -15.804688 14.945312 -16.328125 13.15625 -16.859375 C 11.363281 -17.390625 9.691406 -18.09375 8.140625 -18.96875 C 6.585938 -19.84375 5.296875 -20.960938 4.265625 -22.328125 C 3.242188 -23.703125 2.734375 -25.488281 2.734375 -27.6875 C 2.734375 -29.320312 3.050781 -30.851562 3.6875 -32.28125 C 4.332031 -33.707031 5.285156 -34.957031 6.546875 -36.03125 C 7.804688 -37.113281 9.347656 -37.957031 11.171875 -38.5625 C 13.003906 -39.164062 15.128906 -39.46875 17.546875 -39.46875 C 19.734375 -39.46875 21.703125 -39.164062 23.453125 -38.5625 C 25.210938 -37.957031 26.710938 -37.195312 27.953125 -36.28125 C 29.191406 -35.375 30.140625 -34.390625 30.796875 -33.328125 C 31.460938 -32.265625 31.796875 -31.296875 31.796875 -30.421875 C 31.796875 -29.328125 31.421875 -28.410156 30.671875 -27.671875 C 29.921875 -26.941406 28.925781 -26.578125 27.6875 -26.578125 C 26.988281 -26.578125 26.390625 -26.703125 25.890625 -26.953125 C 25.398438 -27.210938 24.941406 -27.535156 24.515625 -27.921875 C 24.097656 -28.304688 23.679688 -28.726562 23.265625 -29.1875 C 22.847656 -29.644531 22.351562 -30.066406 21.78125 -30.453125 C 21.21875 -30.835938 20.550781 -31.15625 19.78125 -31.40625 C 19.019531 -31.664062 18.085938 -31.796875 16.984375 -31.796875 C 15.203125 -31.796875 13.890625 -31.4375 13.046875 -30.71875 C 12.203125 -30.007812 11.78125 -29.179688 11.78125 -28.234375 C 11.78125 -27.128906 12.289062 -26.257812 13.3125 -25.625 C 14.34375 -24.988281 15.632812 -24.410156 17.1875 -23.890625 C 18.738281 -23.378906 20.410156 -22.859375 22.203125 -22.328125 C 23.992188 -21.804688 25.664062 -21.101562 27.21875 -20.21875 C 28.769531 -19.34375 30.054688 -18.21875 31.078125 -16.84375 C 32.097656 -15.476562 32.609375 -13.703125 32.609375 -11.515625 C 32.609375 -9.796875 32.25 -8.175781 31.53125 -6.65625 C 30.820312 -5.144531 29.78125 -3.8125 28.40625 -2.65625 C 27.039062 -1.507812 25.351562 -0.597656 23.34375 0.078125 C 21.332031 0.753906 19.03125 1.09375 16.4375 1.09375 Z M 16.4375 1.09375 "/></g></g></g><g fill="#ffffff" fill-opacity="1"><g transform="translate(287.81628, 127.221981)"><g><path d="M 8.5 0.546875 C 7.25 0.546875 6.203125 0.132812 5.359375 -0.6875 C 4.523438 -1.507812 4.109375 -2.46875 4.109375 -3.5625 L 4.109375 -34.8125 C 4.109375 -35.90625 4.523438 -36.863281 5.359375 -37.6875 C 6.203125 -38.507812 7.25 -38.921875 8.5 -38.921875 C 9.738281 -38.921875 10.773438 -38.507812 11.609375 -37.6875 C 12.453125 -36.863281 12.875 -35.90625 12.875 -34.8125 L 12.875 -3.5625 C 12.875 -2.46875 12.453125 -1.507812 11.609375 -0.6875 C 10.773438 0.132812 9.738281 0.546875 8.5 0.546875 Z M 8.5 0.546875 "/></g></g></g><g fill="#ffffff" fill-opacity="1"><g transform="translate(304.804143, 127.221981)"><g><path d="M 20 1.09375 C 17.519531 1.09375 15.253906 0.691406 13.203125 -0.109375 C 11.160156 -0.910156 9.40625 -2.023438 7.9375 -3.453125 C 6.476562 -4.878906 5.335938 -6.5625 4.515625 -8.5 C 3.691406 -10.4375 3.28125 -12.535156 3.28125 -14.796875 L 3.28125 -23.5625 C 3.28125 -25.832031 3.691406 -27.9375 4.515625 -29.875 C 5.335938 -31.8125 6.476562 -33.488281 7.9375 -34.90625 C 9.40625 -36.332031 11.160156 -37.445312 13.203125 -38.25 C 15.253906 -39.0625 17.519531 -39.46875 20 -39.46875 C 22.195312 -39.46875 24.171875 -39.164062 25.921875 -38.5625 C 27.679688 -37.957031 29.179688 -37.195312 30.421875 -36.28125 C 31.660156 -35.375 32.609375 -34.390625 33.265625 -33.328125 C 33.921875 -32.265625 34.25 -31.296875 34.25 -30.421875 C 34.25 -29.328125 33.875 -28.410156 33.125 -27.671875 C 32.382812 -26.941406 31.390625 -26.578125 30.140625 -26.578125 C 29.117188 -26.578125 28.296875 -26.851562 27.671875 -27.40625 C 27.054688 -27.957031 26.425781 -28.550781 25.78125 -29.1875 C 25.144531 -29.820312 24.394531 -30.414062 23.53125 -30.96875 C 22.675781 -31.519531 21.5 -31.796875 20 -31.796875 C 17.664062 -31.796875 15.800781 -31.082031 14.40625 -29.65625 C 13.019531 -28.226562 12.328125 -26.195312 12.328125 -23.5625 L 12.328125 -14.796875 C 12.328125 -12.171875 13.019531 -10.144531 14.40625 -8.71875 C 15.800781 -7.289062 17.664062 -6.578125 20 -6.578125 C 21.175781 -6.578125 22.15625 -6.6875 22.9375 -6.90625 C 23.726562 -7.125 24.378906 -7.378906 24.890625 -7.671875 C 25.472656 -8.003906 25.945312 -8.367188 26.3125 -8.765625 L 26.3125 -14.53125 L 23.015625 -14.53125 C 21.628906 -14.53125 20.550781 -14.894531 19.78125 -15.625 C 19.019531 -16.351562 18.640625 -17.265625 18.640625 -18.359375 C 18.640625 -19.453125 19.019531 -20.363281 19.78125 -21.09375 C 20.550781 -21.832031 21.628906 -22.203125 23.015625 -22.203125 L 30.6875 -22.203125 C 31.9375 -22.203125 32.976562 -21.789062 33.8125 -20.96875 C 34.65625 -20.144531 35.078125 -19.1875 35.078125 -18.09375 L 35.078125 -7.671875 C 35.078125 -6.898438 34.726562 -6.015625 34.03125 -5.015625 C 33.34375 -4.015625 32.347656 -3.066406 31.046875 -2.171875 C 29.753906 -1.273438 28.175781 -0.507812 26.3125 0.125 C 24.445312 0.769531 22.34375 1.09375 20 1.09375 Z M 20 1.09375 "/></g></g></g><g fill="#ffffff" fill-opacity="1"><g transform="translate(343.163821, 127.221981)"><g><path d="M 8.21875 0.546875 C 6.976562 0.546875 5.9375 0.132812 5.09375 -0.6875 C 4.257812 -1.507812 3.84375 -2.46875 3.84375 -3.5625 L 3.84375 -34.8125 C 3.84375 -35.90625 4.269531 -36.863281 5.125 -37.6875 C 5.976562 -38.507812 7.101562 -38.921875 8.5 -38.921875 C 9.738281 -38.921875 10.773438 -38.550781 11.609375 -37.8125 C 12.453125 -37.082031 13.242188 -36.171875 13.984375 -35.078125 L 26.859375 -15.625 L 27.40625 -15.625 L 27.40625 -34.8125 C 27.40625 -35.90625 27.820312 -36.863281 28.65625 -37.6875 C 29.5 -38.507812 30.546875 -38.921875 31.796875 -38.921875 C 33.035156 -38.921875 34.070312 -38.507812 34.90625 -37.6875 C 35.75 -36.863281 36.171875 -35.90625 36.171875 -34.8125 L 36.171875 -3.5625 C 36.171875 -2.425781 35.738281 -1.457031 34.875 -0.65625 C 34.019531 0.144531 32.898438 0.546875 31.515625 0.546875 C 30.273438 0.546875 29.234375 0.179688 28.390625 -0.546875 C 27.546875 -1.273438 26.757812 -2.1875 26.03125 -3.28125 L 13.15625 -22.75 L 12.609375 -22.75 L 12.609375 -3.5625 C 12.609375 -2.46875 12.1875 -1.507812 11.34375 -0.6875 C 10.5 0.132812 9.457031 0.546875 8.21875 0.546875 Z M 8.21875 0.546875 "/></g></g></g></svg>