<svg xmlns="http://www.w3.org/2000/svg" xmlns:xlink="http://www.w3.org/1999/xlink" width="700" zoomAndPan="magnify" viewBox="0 0 525 149.999998" height="200" preserveAspectRatio="xMidYMid meet" version="1.0"><defs><g/><clipPath id="30c40fc5e4"><path d="M 66 53 L 117.75 53 L 117.75 126.371094 L 66 126.371094 Z M 66 53 " clip-rule="nonzero"/></clipPath><clipPath id="3f018973c4"><path d="M 15 74 L 97 74 L 97 126.371094 L 15 126.371094 Z M 15 74 " clip-rule="nonzero"/></clipPath><clipPath id="e84f7f2c51"><path d="M 69 23.621094 L 97 23.621094 L 97 52 L 69 52 Z M 69 23.621094 " clip-rule="nonzero"/></clipPath></defs><path fill="#817bb8" d="M 15 105.140625 L 66.378906 74.992188 L 44.09375 37.019531 C 36.308594 23.757812 15.714844 28.511719 15.019531 43.875 C 15.007812 44.199219 15 44.523438 15 44.847656 L 15 105.140625 " fill-opacity="1" fill-rule="nonzero"/><g clip-path="url(#30c40fc5e4)"><path fill="#e62b4a" d="M 96.523438 126.371094 C 108.246094 126.371094 117.753906 116.867188 117.753906 105.140625 L 117.75 64.96875 C 117.75 56.0625 108.078125 50.523438 100.394531 55.03125 L 66.378906 74.996094 L 96.523438 126.371094 " fill-opacity="1" fill-rule="nonzero"/></g><g clip-path="url(#3f018973c4)"><path fill="#985288" d="M 36.226562 126.371094 L 96.523438 126.371094 L 66.378906 74.996094 L 15 105.140625 C 15 105.644531 15.015625 106.144531 15.054688 106.640625 C 15.820312 117.664062 25.007812 126.371094 36.226562 126.371094 " fill-opacity="1" fill-rule="nonzero"/></g><g clip-path="url(#e84f7f2c51)"><path fill="#c6488c" d="M 96.523438 37.351562 C 96.523438 44.933594 90.378906 51.082031 82.792969 51.082031 C 75.210938 51.082031 69.0625 44.933594 69.0625 37.351562 C 69.066406 29.769531 75.210938 23.621094 82.792969 23.621094 C 90.378906 23.621094 96.523438 29.765625 96.523438 37.351562 Z M 96.523438 37.351562 " fill-opacity="1" fill-rule="nonzero"/></g><g fill="#ffffff" fill-opacity="1"><g transform="translate(120.021809, 74.847253)"><g><path d="M 11.484375 0.765625 C 9.898438 0.765625 8.46875 0.539062 7.1875 0.09375 C 5.914062 -0.351562 4.832031 -0.898438 3.9375 -1.546875 C 3.050781 -2.203125 2.363281 -2.910156 1.875 -3.671875 C 1.394531 -4.441406 1.15625 -5.132812 1.15625 -5.75 C 1.15625 -6.507812 1.414062 -7.144531 1.9375 -7.65625 C 2.457031 -8.164062 3.148438 -8.421875 4.015625 -8.421875 C 4.734375 -8.421875 5.316406 -8.222656 5.765625 -7.828125 C 6.210938 -7.429688 6.675781 -6.988281 7.15625 -6.5 C 7.644531 -6.019531 8.238281 -5.582031 8.9375 -5.1875 C 9.644531 -4.789062 10.625 -4.59375 11.875 -4.59375 C 13.40625 -4.59375 14.550781 -4.910156 15.3125 -5.546875 C 16.082031 -6.191406 16.46875 -6.894531 16.46875 -7.65625 C 16.46875 -8.425781 16.109375 -9.035156 15.390625 -9.484375 C 14.679688 -9.929688 13.78125 -10.332031 12.6875 -10.6875 C 11.601562 -11.039062 10.4375 -11.398438 9.1875 -11.765625 C 7.9375 -12.140625 6.769531 -12.632812 5.6875 -13.25 C 4.601562 -13.863281 3.703125 -14.648438 2.984375 -15.609375 C 2.273438 -16.566406 1.921875 -17.8125 1.921875 -19.34375 C 1.921875 -20.488281 2.140625 -21.554688 2.578125 -22.546875 C 3.023438 -23.546875 3.6875 -24.421875 4.5625 -25.171875 C 5.445312 -25.929688 6.53125 -26.519531 7.8125 -26.9375 C 9.09375 -27.363281 10.570312 -27.578125 12.25 -27.578125 C 13.78125 -27.578125 15.160156 -27.363281 16.390625 -26.9375 C 17.617188 -26.519531 18.664062 -25.988281 19.53125 -25.34375 C 20.394531 -24.707031 21.054688 -24.019531 21.515625 -23.28125 C 21.984375 -22.539062 22.21875 -21.863281 22.21875 -21.25 C 22.21875 -20.488281 21.953125 -19.851562 21.421875 -19.34375 C 20.898438 -18.832031 20.207031 -18.578125 19.34375 -18.578125 C 18.851562 -18.578125 18.4375 -18.664062 18.09375 -18.84375 C 17.75 -19.019531 17.429688 -19.242188 17.140625 -19.515625 C 16.847656 -19.785156 16.550781 -20.078125 16.25 -20.390625 C 15.957031 -20.710938 15.613281 -21.003906 15.21875 -21.265625 C 14.820312 -21.535156 14.351562 -21.757812 13.8125 -21.9375 C 13.28125 -22.125 12.632812 -22.21875 11.875 -22.21875 C 10.625 -22.21875 9.703125 -21.96875 9.109375 -21.46875 C 8.523438 -20.96875 8.234375 -20.382812 8.234375 -19.71875 C 8.234375 -18.957031 8.585938 -18.351562 9.296875 -17.90625 C 10.015625 -17.457031 10.914062 -17.050781 12 -16.6875 C 13.09375 -16.332031 14.265625 -15.96875 15.515625 -15.59375 C 16.765625 -15.226562 17.929688 -14.738281 19.015625 -14.125 C 20.097656 -13.519531 20.992188 -12.738281 21.703125 -11.78125 C 22.421875 -10.820312 22.78125 -9.578125 22.78125 -8.046875 C 22.78125 -6.847656 22.53125 -5.71875 22.03125 -4.65625 C 21.539062 -3.59375 20.816406 -2.660156 19.859375 -1.859375 C 18.898438 -1.054688 17.71875 -0.421875 16.3125 0.046875 C 14.90625 0.523438 13.296875 0.765625 11.484375 0.765625 Z M 11.484375 0.765625 "/></g></g></g><g fill="#ffffff" fill-opacity="1"><g transform="translate(144.335249, 74.847253)"><g><path d="M 5.75 0.390625 C 4.875 0.390625 4.144531 0.101562 3.5625 -0.46875 C 2.976562 -1.050781 2.6875 -1.722656 2.6875 -2.484375 L 2.6875 -23.9375 C 2.6875 -24.695312 2.976562 -25.363281 3.5625 -25.9375 C 4.144531 -26.519531 4.875 -26.8125 5.75 -26.8125 L 13.21875 -26.8125 C 14.976562 -26.8125 16.539062 -26.578125 17.90625 -26.109375 C 19.269531 -25.648438 20.410156 -25.019531 21.328125 -24.21875 C 22.242188 -23.414062 22.9375 -22.445312 23.40625 -21.3125 C 23.882812 -20.175781 24.125 -18.941406 24.125 -17.609375 C 24.125 -16.265625 23.882812 -15.03125 23.40625 -13.90625 C 22.9375 -12.78125 22.242188 -11.8125 21.328125 -11 C 20.410156 -10.195312 19.269531 -9.566406 17.90625 -9.109375 C 16.539062 -8.648438 14.976562 -8.421875 13.21875 -8.421875 L 8.8125 -8.421875 L 8.8125 -2.484375 C 8.8125 -1.722656 8.515625 -1.050781 7.921875 -0.46875 C 7.335938 0.101562 6.613281 0.390625 5.75 0.390625 Z M 13.21875 -13.78125 C 14.75 -13.78125 15.894531 -14.128906 16.65625 -14.828125 C 17.425781 -15.535156 17.8125 -16.460938 17.8125 -17.609375 C 17.8125 -18.765625 17.425781 -19.691406 16.65625 -20.390625 C 15.894531 -21.097656 14.75 -21.453125 13.21875 -21.453125 L 8.8125 -21.453125 L 8.8125 -13.78125 Z M 13.21875 -13.78125 "/></g></g></g><g fill="#ffffff" fill-opacity="1"><g transform="translate(170.180247, 74.847253)"><g><path d="M 3.640625 0.390625 C 2.773438 0.390625 2.046875 0.101562 1.453125 -0.46875 C 0.867188 -1.050781 0.578125 -1.722656 0.578125 -2.484375 C 0.578125 -2.710938 0.613281 -2.992188 0.6875 -3.328125 C 0.757812 -3.660156 0.847656 -3.984375 0.953125 -4.296875 C 1.054688 -4.648438 1.1875 -5.003906 1.34375 -5.359375 L 8.609375 -24.125 C 9.023438 -25.195312 9.582031 -26.039062 10.28125 -26.65625 C 10.976562 -27.269531 11.957031 -27.578125 13.21875 -27.578125 C 14.46875 -27.578125 15.441406 -27.269531 16.140625 -26.65625 C 16.847656 -26.039062 17.40625 -25.195312 17.8125 -24.125 L 25.078125 -5.359375 C 25.234375 -5.003906 25.363281 -4.648438 25.46875 -4.296875 C 25.570312 -3.984375 25.660156 -3.660156 25.734375 -3.328125 C 25.804688 -2.992188 25.84375 -2.710938 25.84375 -2.484375 C 25.84375 -1.722656 25.550781 -1.050781 24.96875 -0.46875 C 24.382812 0.101562 23.65625 0.390625 22.78125 0.390625 C 21.914062 0.390625 21.234375 0.15625 20.734375 -0.3125 C 20.234375 -0.789062 19.832031 -1.453125 19.53125 -2.296875 L 18.1875 -5.9375 L 8.234375 -5.9375 L 6.890625 -2.296875 C 6.585938 -1.453125 6.1875 -0.789062 5.6875 -0.3125 C 5.1875 0.15625 4.503906 0.390625 3.640625 0.390625 Z M 16.46875 -11.296875 L 13.40625 -20.296875 L 13.015625 -20.296875 L 9.953125 -11.296875 Z M 16.46875 -11.296875 "/></g></g></g><g fill="#ffffff" fill-opacity="1"><g transform="translate(196.599574, 74.847253)"><g><path d="M 5.75 0.390625 C 4.875 0.390625 4.144531 0.101562 3.5625 -0.46875 C 2.976562 -1.050781 2.6875 -1.722656 2.6875 -2.484375 L 2.6875 -23.9375 C 2.6875 -24.695312 2.976562 -25.363281 3.5625 -25.9375 C 4.144531 -26.519531 4.875 -26.8125 5.75 -26.8125 L 13.984375 -26.8125 C 15.609375 -26.8125 17.046875 -26.59375 18.296875 -26.15625 C 19.554688 -25.71875 20.617188 -25.125 21.484375 -24.375 C 22.347656 -23.625 23.003906 -22.738281 23.453125 -21.71875 C 23.898438 -20.695312 24.125 -19.582031 24.125 -18.375 C 24.125 -17.125 23.882812 -16.082031 23.40625 -15.25 C 22.9375 -14.425781 22.410156 -13.757812 21.828125 -13.25 C 21.160156 -12.664062 20.394531 -12.207031 19.53125 -11.875 L 19.53125 -11.484375 L 24.3125 -5.171875 C 24.519531 -4.890625 24.710938 -4.609375 24.890625 -4.328125 C 25.015625 -4.066406 25.140625 -3.773438 25.265625 -3.453125 C 25.398438 -3.140625 25.46875 -2.816406 25.46875 -2.484375 C 25.46875 -1.722656 25.171875 -1.050781 24.578125 -0.46875 C 23.992188 0.101562 23.269531 0.390625 22.40625 0.390625 C 21.738281 0.390625 21.191406 0.226562 20.765625 -0.09375 C 20.347656 -0.414062 20 -0.769531 19.71875 -1.15625 L 13.40625 -9.953125 L 8.8125 -9.953125 L 8.8125 -2.484375 C 8.8125 -1.722656 8.515625 -1.050781 7.921875 -0.46875 C 7.335938 0.101562 6.613281 0.390625 5.75 0.390625 Z M 13.984375 -15.3125 C 15.234375 -15.3125 16.179688 -15.601562 16.828125 -16.1875 C 17.484375 -16.78125 17.8125 -17.507812 17.8125 -18.375 C 17.8125 -19.25 17.484375 -19.976562 16.828125 -20.5625 C 16.179688 -21.15625 15.234375 -21.453125 13.984375 -21.453125 L 8.8125 -21.453125 L 8.8125 -15.3125 Z M 13.984375 -15.3125 "/></g></g></g><g fill="#ffffff" fill-opacity="1"><g transform="translate(223.018901, 74.847253)"><g><path d="M 5.75 0.390625 C 4.875 0.390625 4.144531 0.101562 3.5625 -0.46875 C 2.976562 -1.050781 2.6875 -1.722656 2.6875 -2.484375 L 2.6875 -24.3125 C 2.6875 -25.082031 2.976562 -25.753906 3.5625 -26.328125 C 4.144531 -26.898438 4.875 -27.1875 5.75 -27.1875 C 6.613281 -27.1875 7.335938 -26.898438 7.921875 -26.328125 C 8.515625 -25.753906 8.8125 -25.082031 8.8125 -24.3125 L 8.8125 -16.28125 L 12.828125 -16.28125 L 19.15625 -25.65625 C 19.425781 -26.039062 19.769531 -26.390625 20.1875 -26.703125 C 20.613281 -27.023438 21.160156 -27.1875 21.828125 -27.1875 C 22.691406 -27.1875 23.414062 -26.898438 24 -26.328125 C 24.59375 -25.753906 24.890625 -25.082031 24.890625 -24.3125 C 24.890625 -23.65625 24.75 -23.113281 24.46875 -22.6875 C 24.1875 -22.269531 23.945312 -21.921875 23.75 -21.640625 L 18.1875 -13.78125 L 24.125 -5.171875 C 24.332031 -4.890625 24.578125 -4.535156 24.859375 -4.109375 C 25.140625 -3.691406 25.28125 -3.148438 25.28125 -2.484375 C 25.28125 -1.722656 24.984375 -1.050781 24.390625 -0.46875 C 23.804688 0.101562 23.082031 0.390625 22.21875 0.390625 C 21.550781 0.390625 21.003906 0.226562 20.578125 -0.09375 C 20.160156 -0.414062 19.8125 -0.769531 19.53125 -1.15625 L 12.828125 -10.921875 L 8.8125 -10.921875 L 8.8125 -2.484375 C 8.8125 -1.722656 8.515625 -1.050781 7.921875 -0.46875 C 7.335938 0.101562 6.613281 0.390625 5.75 0.390625 Z M 5.75 0.390625 "/></g></g></g><g fill="#ffffff" fill-opacity="1"><g transform="translate(249.055342, 74.847253)"><g/></g></g><g fill="#ffffff" fill-opacity="1"><g transform="translate(259.201898, 74.847253)"><g><path d="M 10.921875 0.765625 C 9.847656 0.765625 8.953125 0.425781 8.234375 -0.25 C 7.515625 -0.925781 7.003906 -1.800781 6.703125 -2.875 L 1.34375 -21.453125 C 1.238281 -21.804688 1.132812 -22.160156 1.03125 -22.515625 C 0.957031 -22.828125 0.894531 -23.140625 0.84375 -23.453125 C 0.789062 -23.773438 0.765625 -24.0625 0.765625 -24.3125 C 0.765625 -25.082031 1.054688 -25.753906 1.640625 -26.328125 C 2.234375 -26.898438 2.960938 -27.1875 3.828125 -27.1875 C 5.515625 -27.1875 6.597656 -26.296875 7.078125 -24.515625 L 11.109375 -10.15625 L 11.484375 -10.15625 L 15.3125 -23.9375 C 15.539062 -24.800781 15.992188 -25.554688 16.671875 -26.203125 C 17.347656 -26.859375 18.175781 -27.1875 19.15625 -27.1875 C 20.125 -27.1875 20.945312 -26.859375 21.625 -26.203125 C 22.300781 -25.554688 22.753906 -24.800781 22.984375 -23.9375 L 26.8125 -10.15625 L 27.1875 -10.15625 L 31.21875 -24.515625 C 31.695312 -26.296875 32.78125 -27.1875 34.46875 -27.1875 C 35.332031 -27.1875 36.054688 -26.898438 36.640625 -26.328125 C 37.234375 -25.753906 37.53125 -25.082031 37.53125 -24.3125 C 37.53125 -24.0625 37.5 -23.773438 37.4375 -23.453125 C 37.375 -23.140625 37.300781 -22.828125 37.21875 -22.515625 L 36.953125 -21.453125 L 31.59375 -2.875 C 31.289062 -1.800781 30.78125 -0.925781 30.0625 -0.25 C 29.34375 0.425781 28.445312 0.765625 27.375 0.765625 C 26.3125 0.765625 25.414062 0.425781 24.6875 -0.25 C 23.957031 -0.925781 23.453125 -1.800781 23.171875 -2.875 L 19.34375 -16.65625 L 18.953125 -16.65625 L 15.125 -2.875 C 14.84375 -1.800781 14.335938 -0.925781 13.609375 -0.25 C 12.878906 0.425781 11.984375 0.765625 10.921875 0.765625 Z M 10.921875 0.765625 "/></g></g></g><g fill="#ffffff" fill-opacity="1"><g transform="translate(297.490781, 74.847253)"><g><path d="M 5.75 0 C 4.875 0 4.144531 -0.285156 3.5625 -0.859375 C 2.976562 -1.429688 2.6875 -2.101562 2.6875 -2.875 L 2.6875 -23.9375 C 2.6875 -24.695312 2.976562 -25.363281 3.5625 -25.9375 C 4.144531 -26.519531 4.875 -26.8125 5.75 -26.8125 L 20.484375 -26.8125 C 21.453125 -26.8125 22.203125 -26.554688 22.734375 -26.046875 C 23.273438 -25.535156 23.546875 -24.894531 23.546875 -24.125 C 23.546875 -23.363281 23.273438 -22.726562 22.734375 -22.21875 C 22.203125 -21.707031 21.453125 -21.453125 20.484375 -21.453125 L 8.8125 -21.453125 L 8.8125 -16.078125 L 17.046875 -16.078125 C 18.015625 -16.078125 18.765625 -15.820312 19.296875 -15.3125 C 19.835938 -14.800781 20.109375 -14.164062 20.109375 -13.40625 C 20.109375 -12.632812 19.835938 -11.992188 19.296875 -11.484375 C 18.765625 -10.972656 18.015625 -10.71875 17.046875 -10.71875 L 8.8125 -10.71875 L 8.8125 -5.359375 L 20.875 -5.359375 C 21.84375 -5.359375 22.59375 -5.101562 23.125 -4.59375 C 23.664062 -4.082031 23.9375 -3.445312 23.9375 -2.6875 C 23.9375 -1.914062 23.664062 -1.273438 23.125 -0.765625 C 22.59375 -0.253906 21.84375 0 20.875 0 Z M 5.75 0 "/></g></g></g><g fill="#ffffff" fill-opacity="1"><g transform="translate(322.187108, 74.847253)"><g><path d="M 5.75 0 C 4.875 0 4.144531 -0.285156 3.5625 -0.859375 C 2.976562 -1.429688 2.6875 -2.101562 2.6875 -2.875 L 2.6875 -23.9375 C 2.6875 -24.695312 2.976562 -25.363281 3.5625 -25.9375 C 4.144531 -26.519531 4.875 -26.8125 5.75 -26.8125 L 14.171875 -26.8125 C 15.859375 -26.8125 17.300781 -26.628906 18.5 -26.265625 C 19.695312 -25.910156 20.6875 -25.421875 21.46875 -24.796875 C 22.25 -24.171875 22.820312 -23.4375 23.1875 -22.59375 C 23.5625 -21.75 23.75 -20.859375 23.75 -19.921875 C 23.75 -18.765625 23.523438 -17.816406 23.078125 -17.078125 C 22.628906 -16.335938 22.148438 -15.75 21.640625 -15.3125 C 21.003906 -14.800781 20.300781 -14.421875 19.53125 -14.171875 L 19.53125 -13.78125 C 20.53125 -13.550781 21.425781 -13.179688 22.21875 -12.671875 C 22.875 -12.242188 23.484375 -11.625 24.046875 -10.8125 C 24.609375 -10.007812 24.890625 -8.957031 24.890625 -7.65625 C 24.890625 -6.5625 24.675781 -5.546875 24.25 -4.609375 C 23.832031 -3.679688 23.195312 -2.875 22.34375 -2.1875 C 21.488281 -1.5 20.394531 -0.960938 19.0625 -0.578125 C 17.738281 -0.191406 16.171875 0 14.359375 0 Z M 14.359375 -4.984375 C 15.816406 -4.984375 16.882812 -5.273438 17.5625 -5.859375 C 18.238281 -6.441406 18.578125 -7.171875 18.578125 -8.046875 C 18.578125 -8.910156 18.238281 -9.632812 17.5625 -10.21875 C 16.882812 -10.8125 15.816406 -11.109375 14.359375 -11.109375 L 8.8125 -11.109375 L 8.8125 -4.984375 Z M 14.171875 -16.078125 C 15.242188 -16.078125 16.082031 -16.363281 16.6875 -16.9375 C 17.300781 -17.519531 17.609375 -18.191406 17.609375 -18.953125 C 17.609375 -19.722656 17.300781 -20.394531 16.6875 -20.96875 C 16.082031 -21.539062 15.242188 -21.828125 14.171875 -21.828125 L 8.8125 -21.828125 L 8.8125 -16.078125 Z M 14.171875 -16.078125 "/></g></g></g><g fill="#ffffff" fill-opacity="1"><g transform="translate(120.021809, 111.197638)"><g><path d="M 5.75 0 C 4.875 0 4.144531 -0.285156 3.5625 -0.859375 C 2.976562 -1.429688 2.6875 -2.101562 2.6875 -2.875 L 2.6875 -23.9375 C 2.6875 -24.695312 2.976562 -25.363281 3.5625 -25.9375 C 4.144531 -26.519531 4.875 -26.8125 5.75 -26.8125 L 13.015625 -26.8125 C 14.734375 -26.8125 16.3125 -26.53125 17.75 -25.96875 C 19.195312 -25.40625 20.429688 -24.625 21.453125 -23.625 C 22.472656 -22.632812 23.269531 -21.460938 23.84375 -20.109375 C 24.414062 -18.753906 24.703125 -17.285156 24.703125 -15.703125 L 24.703125 -11.109375 C 24.703125 -9.523438 24.414062 -8.054688 23.84375 -6.703125 C 23.269531 -5.347656 22.472656 -4.171875 21.453125 -3.171875 C 20.429688 -2.179688 19.195312 -1.40625 17.75 -0.84375 C 16.3125 -0.28125 14.734375 0 13.015625 0 Z M 13.015625 -5.359375 C 14.648438 -5.359375 15.953125 -5.851562 16.921875 -6.84375 C 17.890625 -7.84375 18.375 -9.265625 18.375 -11.109375 L 18.375 -15.703125 C 18.375 -17.535156 17.890625 -18.953125 16.921875 -19.953125 C 15.953125 -20.953125 14.648438 -21.453125 13.015625 -21.453125 L 8.8125 -21.453125 L 8.8125 -5.359375 Z M 13.015625 -5.359375 "/></g></g></g><g fill="#ffffff" fill-opacity="1"><g transform="translate(147.015465, 111.197638)"><g><path d="M 5.75 0 C 4.875 0 4.144531 -0.285156 3.5625 -0.859375 C 2.976562 -1.429688 2.6875 -2.101562 2.6875 -2.875 L 2.6875 -23.9375 C 2.6875 -24.695312 2.976562 -25.363281 3.5625 -25.9375 C 4.144531 -26.519531 4.875 -26.8125 5.75 -26.8125 L 20.484375 -26.8125 C 21.453125 -26.8125 22.203125 -26.554688 22.734375 -26.046875 C 23.273438 -25.535156 23.546875 -24.894531 23.546875 -24.125 C 23.546875 -23.363281 23.273438 -22.726562 22.734375 -22.21875 C 22.203125 -21.707031 21.453125 -21.453125 20.484375 -21.453125 L 8.8125 -21.453125 L 8.8125 -16.078125 L 17.046875 -16.078125 C 18.015625 -16.078125 18.765625 -15.820312 19.296875 -15.3125 C 19.835938 -14.800781 20.109375 -14.164062 20.109375 -13.40625 C 20.109375 -12.632812 19.835938 -11.992188 19.296875 -11.484375 C 18.765625 -10.972656 18.015625 -10.71875 17.046875 -10.71875 L 8.8125 -10.71875 L 8.8125 -5.359375 L 20.875 -5.359375 C 21.84375 -5.359375 22.59375 -5.101562 23.125 -4.59375 C 23.664062 -4.082031 23.9375 -3.445312 23.9375 -2.6875 C 23.9375 -1.914062 23.664062 -1.273438 23.125 -0.765625 C 22.59375 -0.253906 21.84375 0 20.875 0 Z M 5.75 0 "/></g></g></g><g fill="#ffffff" fill-opacity="1"><g transform="translate(171.711792, 111.197638)"><g><path d="M 11.484375 0.765625 C 9.898438 0.765625 8.46875 0.539062 7.1875 0.09375 C 5.914062 -0.351562 4.832031 -0.898438 3.9375 -1.546875 C 3.050781 -2.203125 2.363281 -2.910156 1.875 -3.671875 C 1.394531 -4.441406 1.15625 -5.132812 1.15625 -5.75 C 1.15625 -6.507812 1.414062 -7.144531 1.9375 -7.65625 C 2.457031 -8.164062 3.148438 -8.421875 4.015625 -8.421875 C 4.734375 -8.421875 5.316406 -8.222656 5.765625 -7.828125 C 6.210938 -7.429688 6.675781 -6.988281 7.15625 -6.5 C 7.644531 -6.019531 8.238281 -5.582031 8.9375 -5.1875 C 9.644531 -4.789062 10.625 -4.59375 11.875 -4.59375 C 13.40625 -4.59375 14.550781 -4.910156 15.3125 -5.546875 C 16.082031 -6.191406 16.46875 -6.894531 16.46875 -7.65625 C 16.46875 -8.425781 16.109375 -9.035156 15.390625 -9.484375 C 14.679688 -9.929688 13.78125 -10.332031 12.6875 -10.6875 C 11.601562 -11.039062 10.4375 -11.398438 9.1875 -11.765625 C 7.9375 -12.140625 6.769531 -12.632812 5.6875 -13.25 C 4.601562 -13.863281 3.703125 -14.648438 2.984375 -15.609375 C 2.273438 -16.566406 1.921875 -17.8125 1.921875 -19.34375 C 1.921875 -20.488281 2.140625 -21.554688 2.578125 -22.546875 C 3.023438 -23.546875 3.6875 -24.421875 4.5625 -25.171875 C 5.445312 -25.929688 6.53125 -26.519531 7.8125 -26.9375 C 9.09375 -27.363281 10.570312 -27.578125 12.25 -27.578125 C 13.78125 -27.578125 15.160156 -27.363281 16.390625 -26.9375 C 17.617188 -26.519531 18.664062 -25.988281 19.53125 -25.34375 C 20.394531 -24.707031 21.054688 -24.019531 21.515625 -23.28125 C 21.984375 -22.539062 22.21875 -21.863281 22.21875 -21.25 C 22.21875 -20.488281 21.953125 -19.851562 21.421875 -19.34375 C 20.898438 -18.832031 20.207031 -18.578125 19.34375 -18.578125 C 18.851562 -18.578125 18.4375 -18.664062 18.09375 -18.84375 C 17.75 -19.019531 17.429688 -19.242188 17.140625 -19.515625 C 16.847656 -19.785156 16.550781 -20.078125 16.25 -20.390625 C 15.957031 -20.710938 15.613281 -21.003906 15.21875 -21.265625 C 14.820312 -21.535156 14.351562 -21.757812 13.8125 -21.9375 C 13.28125 -22.125 12.632812 -22.21875 11.875 -22.21875 C 10.625 -22.21875 9.703125 -21.96875 9.109375 -21.46875 C 8.523438 -20.96875 8.234375 -20.382812 8.234375 -19.71875 C 8.234375 -18.957031 8.585938 -18.351562 9.296875 -17.90625 C 10.015625 -17.457031 10.914062 -17.050781 12 -16.6875 C 13.09375 -16.332031 14.265625 -15.96875 15.515625 -15.59375 C 16.765625 -15.226562 17.929688 -14.738281 19.015625 -14.125 C 20.097656 -13.519531 20.992188 -12.738281 21.703125 -11.78125 C 22.421875 -10.820312 22.78125 -9.578125 22.78125 -8.046875 C 22.78125 -6.847656 22.53125 -5.71875 22.03125 -4.65625 C 21.539062 -3.59375 20.816406 -2.660156 19.859375 -1.859375 C 18.898438 -1.054688 17.71875 -0.421875 16.3125 0.046875 C 14.90625 0.523438 13.296875 0.765625 11.484375 0.765625 Z M 11.484375 0.765625 "/></g></g></g><g fill="#ffffff" fill-opacity="1"><g transform="translate(196.025233, 111.197638)"><g><path d="M 5.9375 0.390625 C 5.070312 0.390625 4.34375 0.101562 3.75 -0.46875 C 3.164062 -1.050781 2.875 -1.722656 2.875 -2.484375 L 2.875 -24.3125 C 2.875 -25.082031 3.164062 -25.753906 3.75 -26.328125 C 4.34375 -26.898438 5.070312 -27.1875 5.9375 -27.1875 C 6.800781 -27.1875 7.523438 -26.898438 8.109375 -26.328125 C 8.703125 -25.753906 9 -25.082031 9 -24.3125 L 9 -2.484375 C 9 -1.722656 8.703125 -1.050781 8.109375 -0.46875 C 7.523438 0.101562 6.800781 0.390625 5.9375 0.390625 Z M 5.9375 0.390625 "/></g></g></g><g fill="#ffffff" fill-opacity="1"><g transform="translate(207.894789, 111.197638)"><g><path d="M 13.984375 0.765625 C 12.242188 0.765625 10.65625 0.484375 9.21875 -0.078125 C 7.789062 -0.640625 6.566406 -1.414062 5.546875 -2.40625 C 4.523438 -3.40625 3.726562 -4.582031 3.15625 -5.9375 C 2.582031 -7.289062 2.296875 -8.757812 2.296875 -10.34375 L 2.296875 -16.46875 C 2.296875 -18.050781 2.582031 -19.519531 3.15625 -20.875 C 3.726562 -22.226562 4.523438 -23.398438 5.546875 -24.390625 C 6.566406 -25.390625 7.789062 -26.171875 9.21875 -26.734375 C 10.65625 -27.296875 12.242188 -27.578125 13.984375 -27.578125 C 15.515625 -27.578125 16.890625 -27.363281 18.109375 -26.9375 C 19.335938 -26.519531 20.382812 -25.988281 21.25 -25.34375 C 22.125 -24.707031 22.789062 -24.019531 23.25 -23.28125 C 23.707031 -22.539062 23.9375 -21.863281 23.9375 -21.25 C 23.9375 -20.488281 23.671875 -19.851562 23.140625 -19.34375 C 22.617188 -18.832031 21.925781 -18.578125 21.0625 -18.578125 C 20.34375 -18.578125 19.765625 -18.765625 19.328125 -19.140625 C 18.898438 -19.523438 18.460938 -19.941406 18.015625 -20.390625 C 17.566406 -20.835938 17.039062 -21.253906 16.4375 -21.640625 C 15.84375 -22.023438 15.023438 -22.21875 13.984375 -22.21875 C 12.347656 -22.21875 11.039062 -21.71875 10.0625 -20.71875 C 9.09375 -19.71875 8.609375 -18.300781 8.609375 -16.46875 L 8.609375 -10.34375 C 8.609375 -8.5 9.09375 -7.078125 10.0625 -6.078125 C 11.039062 -5.085938 12.347656 -4.59375 13.984375 -4.59375 C 14.796875 -4.59375 15.472656 -4.671875 16.015625 -4.828125 C 16.566406 -4.984375 17.023438 -5.160156 17.390625 -5.359375 C 17.796875 -5.585938 18.125 -5.84375 18.375 -6.125 L 18.375 -10.15625 L 16.078125 -10.15625 C 15.109375 -10.15625 14.351562 -10.410156 13.8125 -10.921875 C 13.28125 -11.429688 13.015625 -12.066406 13.015625 -12.828125 C 13.015625 -13.597656 13.28125 -14.238281 13.8125 -14.75 C 14.351562 -15.257812 15.109375 -15.515625 16.078125 -15.515625 L 21.453125 -15.515625 C 22.316406 -15.515625 23.039062 -15.222656 23.625 -14.640625 C 24.21875 -14.066406 24.515625 -13.398438 24.515625 -12.640625 L 24.515625 -5.359375 C 24.515625 -4.828125 24.269531 -4.207031 23.78125 -3.5 C 23.300781 -2.800781 22.601562 -2.140625 21.6875 -1.515625 C 20.78125 -0.890625 19.675781 -0.351562 18.375 0.09375 C 17.070312 0.539062 15.609375 0.765625 13.984375 0.765625 Z M 13.984375 0.765625 "/></g></g></g><g fill="#ffffff" fill-opacity="1"><g transform="translate(234.697002, 111.197638)"><g><path d="M 5.75 0.390625 C 4.875 0.390625 4.144531 0.101562 3.5625 -0.46875 C 2.976562 -1.050781 2.6875 -1.722656 2.6875 -2.484375 L 2.6875 -24.3125 C 2.6875 -25.082031 2.984375 -25.753906 3.578125 -26.328125 C 4.179688 -26.898438 4.96875 -27.1875 5.9375 -27.1875 C 6.800781 -27.1875 7.523438 -26.929688 8.109375 -26.421875 C 8.703125 -25.910156 9.253906 -25.273438 9.765625 -24.515625 L 18.765625 -10.921875 L 19.15625 -10.921875 L 19.15625 -24.3125 C 19.15625 -25.082031 19.445312 -25.753906 20.03125 -26.328125 C 20.613281 -26.898438 21.34375 -27.1875 22.21875 -27.1875 C 23.082031 -27.1875 23.804688 -26.898438 24.390625 -26.328125 C 24.984375 -25.753906 25.28125 -25.082031 25.28125 -24.3125 L 25.28125 -2.484375 C 25.28125 -1.691406 24.976562 -1.015625 24.375 -0.453125 C 23.769531 0.109375 22.984375 0.390625 22.015625 0.390625 C 21.148438 0.390625 20.421875 0.132812 19.828125 -0.375 C 19.242188 -0.894531 18.695312 -1.535156 18.1875 -2.296875 L 9.1875 -15.890625 L 8.8125 -15.890625 L 8.8125 -2.484375 C 8.8125 -1.722656 8.515625 -1.050781 7.921875 -0.46875 C 7.335938 0.101562 6.613281 0.390625 5.75 0.390625 Z M 5.75 0.390625 "/></g></g></g></svg>